<svg width="24" height="17" viewBox="0 0 24 17" fill="none" xmlns="http://www.w3.org/2000/svg">
<path d="M11.8246 12.009C14.8713 12.0256 17.9788 12.9703 22 14.7969C19.2784 16.1573 17.8137 16.2098 15.3333 14.7969C12.7299 16.2157 11.2701 16.5763 8.66667 14.7969C5.93921 16.222 4.48618 16.1466 2 14.7969C2.77135 14.4116 3.50968 14.0668 4.22222 13.7622M11.8246 12.009L15.5673 6.58337L10.655 3.43298M11.8246 12.009C10.3234 12.0008 8.8369 12.218 7.26316 12.6661M10.655 3.43298L13.9203 5.51449M10.655 3.43298C13.0878 0.595873 15.055 0.538403 19.076 1.74527M19.076 1.74527C21.9259 4.58179 21.8451 6.34305 20.3626 9.62125L17.1855 7.596M19.076 1.74527C19.1195 3.89576 18.6618 5.1337 17.1855 7.596M19.076 1.74527C16.4272 2.00438 15.4298 3.08048 13.9203 5.51449M17.1855 7.596L13.9203 5.51449M4.22222 13.7622C3.84788 9.61875 4.20211 8.26996 5.50877 7.03343C6.93801 8.5566 7.2382 9.87162 7.26316 12.6661M4.22222 13.7622C5.28523 13.3078 6.29085 12.9429 7.26316 12.6661" stroke="#FBA118" stroke-width="1.5"/>
</svg>
