<svg width="20" height="19" viewBox="0 0 20 19" fill="none" xmlns="http://www.w3.org/2000/svg">
<path d="M4.72481 16.4759L8.1086 12.3727L9.65645 14.347L6.67305 18.1409C5.53047 19.5927 3.41622 18.0628 4.72481 16.4759ZM8.67663 7.13179C8.9989 6.08036 8.85079 5.18192 7.63985 3.84728L4.68086 0.287714C4.26094 -0.20545 3.27136 0.518834 3.68477 1.11616L6.05131 4.0312C6.4989 4.57482 5.66719 5.29422 5.20495 4.73433L2.75704 1.72001C2.30131 1.19754 1.35892 1.88765 1.83581 2.48498C2.52592 3.31506 3.59362 4.67085 4.28373 5.50093C4.76224 5.98758 4.03471 6.70861 3.5627 6.10152L1.13269 3.10672C0.776242 2.71935 0.19356 2.96024 0.0389375 3.41271C-0.127078 3.89611 0.281451 4.2493 0.559771 4.60738L3.27136 8.10998C4.11283 9.08492 5.05359 9.66271 6.14734 9.33557C6.31498 9.28511 6.52006 9.18257 6.73978 9.04748L14.0249 18.4518C14.4172 18.958 15.174 19.0117 15.6656 18.6031L15.7779 18.5104C16.3313 18.0498 16.4208 17.2083 15.9471 16.6647L8.2323 7.80073C8.45691 7.55008 8.62129 7.31245 8.67663 7.13179ZM10.7388 9.18257L11.9384 7.72749C10.3954 3.90262 16.1132 -1.19503 18.885 1.14872C22.2525 3.99865 17.2476 10.8671 13.7303 9.16955L12.3094 10.9746L10.7388 9.18257Z" fill="#FBA118"/>
</svg>
