<svg width="24" height="21" viewBox="0 0 24 21" fill="none" xmlns="http://www.w3.org/2000/svg">
<path fill-rule="evenodd" clip-rule="evenodd" d="M15.7759 15.4503C14.4768 17.1889 9.81646 17.2716 8.24077 15.5867C6.7652 17.3179 1.66389 17.5151 0 14.2037L0.991658 13.0933C2.47199 15.4284 6.36234 15.6792 8.10013 13.0933C8.21012 13.0807 8.32075 13.0741 8.43147 13.0739C9.56139 15.0218 12.7557 15.4089 14.5626 14.133C14.5435 11.6446 14.4863 4.14994 14.4863 3.56556C14.4863 -1.34565 21.0203 -1.02912 20.6436 4.02819L19.1895 4.15724C19.1895 1.5665 16.4935 1.70042 16.4911 3.58747C16.4911 4.09881 16.5411 11.496 16.5578 13.7142C18.4029 15.2799 21.4899 15.0607 23.0465 13.1493L24 14.0283C22.4219 17.4299 17.6615 17.3252 15.7759 15.4503ZM11.6353 10.1885C10.1788 10.169 7.95233 10.1739 6.68415 10.1885C6.69846 11.5837 6.71038 12.6234 6.71038 12.6234L4.73183 13.2175C4.73183 13.2175 4.6484 4.31551 4.6484 3.57773C4.6484 -1.33348 11.2491 -1.09973 10.8725 3.73357L9.354 4.0355C9.354 1.26457 6.63171 1.81729 6.63171 3.54851C6.63171 4.57848 6.64601 6.49476 6.66508 8.30146L13.4064 8.22355C13.4064 8.22355 13.7759 10.2128 11.6353 10.1885ZM8.10013 17.2741C8.21012 17.2609 8.32072 17.2536 8.43147 17.2522C9.80931 19.6165 14.2551 19.6871 15.5137 17.2376H15.9261C17.5948 19.502 21.2944 19.4874 23.0465 17.3374L24 18.2164C22.4315 21.6253 17.6711 21.5133 15.7855 19.6384C14.4863 21.3769 9.82599 21.4573 8.25031 19.7747C6.77474 21.506 1.67342 21.7007 0.00953539 18.3917L0.991658 17.2741C2.47199 19.6165 6.36234 19.8673 8.10013 17.2741Z" fill="#FBA118"/>
</svg>
