<svg width="25" height="15" viewBox="0 0 25 15" fill="none" xmlns="http://www.w3.org/2000/svg">
<path d="M13.6791 12H2C3.82466 8.68972 4.95363 7.17098 8.28877 8.66638M13.6791 12H23C21.5027 9.77657 20.2723 8.57067 19.0695 8.28302M13.6791 12C14.3227 11.167 14.9161 10.4648 15.4759 9.90003M15.4759 9.90003C14.0287 8.626 13.2174 8.46536 11.7701 9.90003C10.937 10.6639 10.4698 10.6696 9.63636 9.90003M15.4759 9.90003C16.7889 8.57543 17.9165 8.00728 19.0695 8.28302M6.49198 8.08663C8.01313 5.69535 8.94607 5.1762 10.8717 6.92713C13.4267 4.10504 14.8459 2.68807 16.9358 5.6227M17.9465 6.92713L19.0695 8.28302" stroke="#FBA118" stroke-width="1.5"/>
<ellipse cx="17.6418" cy="5.77551" rx="0.40107" ry="0.53808" fill="#FBA118"/>
<ellipse cx="22.1867" cy="10.4388" rx="0.40107" ry="0.53808" fill="#FBA118"/>
<ellipse cx="10.6896" cy="7.56909" rx="0.40107" ry="0.53808" fill="#FBA118"/>
<ellipse cx="6.14423" cy="10.7976" rx="0.40107" ry="0.53808" fill="#FBA118"/>
<ellipse cx="9.08564" cy="11.5149" rx="0.40107" ry="0.53808" fill="#FBA118"/>
<ellipse cx="5.34199" cy="6.13427" rx="0.40107" ry="0.53808" fill="#FBA118"/>
<ellipse cx="2.93623" cy="8.28649" rx="0.40107" ry="0.53808" fill="#FBA118"/>
<ellipse cx="21.1174" cy="5.05798" rx="0.40107" ry="0.53808" fill="#FBA118"/>
<ellipse cx="14.8343" cy="7.74825" rx="0.26738" ry="0.35872" fill="#FBA118"/>
<ellipse cx="12.428" cy="9.18343" rx="0.26738" ry="0.35872" fill="#FBA118"/>
<ellipse cx="20.1814" cy="11.3355" rx="0.26738" ry="0.35872" fill="#FBA118"/>
</svg>
