<svg width="23" height="24" viewBox="0 0 23 24" fill="none" xmlns="http://www.w3.org/2000/svg">
<path d="M8.96201 9.79274C8.95918 9.84609 8.95399 9.89896 8.95399 9.95231C8.95399 11.5918 8.95399 13.2314 8.95399 14.8709C8.95399 14.9886 8.89624 15.0476 8.78074 15.0479C8.35209 15.0479 7.92344 15.0479 7.49527 15.0479C7.37882 15.0479 7.32044 14.991 7.32013 14.877C7.32013 12.6871 7.31918 10.4971 7.32296 8.30711C7.32296 8.18012 7.28613 8.10034 7.18369 8.02198C6.55866 7.54707 5.86896 7.21567 5.09947 7.0528C4.89034 7.00842 4.88986 7.01031 4.88986 7.227C4.88986 9.77481 4.88986 12.3221 4.88986 14.8699C4.88986 14.9877 4.83227 15.0467 4.71708 15.047C4.28088 15.047 3.84421 15.047 3.40801 15.047C3.25411 15.047 3.25364 15.046 3.25364 14.8898C3.25364 12.3146 3.25364 9.7394 3.25364 7.16421C3.25364 7.12078 3.25034 7.07735 3.25364 7.03439C3.26167 6.94092 3.22012 6.91212 3.12901 6.91401C2.89722 6.91873 2.66496 6.91354 2.43317 6.9159C1.39554 6.92628 0.445717 6.23941 0.123759 5.22822C0.0534194 5.00681 0.0241506 4.76747 0.00951613 4.53426C-0.00936701 4.22883 0.00243496 3.92103 0.00526743 3.61465C0.014709 2.63651 0.660984 1.72492 1.57871 1.38644C1.85818 1.28306 2.14378 1.22924 2.44261 1.23113C3.04829 1.2349 3.65349 1.22971 4.25917 1.23538C4.9569 1.24198 5.64425 1.3364 6.32593 1.48463C7.64869 1.77166 8.86996 2.29472 9.99964 3.0373C10.7554 3.53393 11.4206 4.13583 12.0551 4.77691C13.0672 5.79896 14.0869 6.81298 15.1047 7.82937C15.7458 8.46951 16.5068 8.90901 17.3749 9.16016C17.8725 9.30414 18.3838 9.35938 18.9007 9.36221C19.4355 9.36504 19.9718 9.33955 20.5043 9.37307C21.4216 9.4316 22.0858 9.9051 22.5126 10.7114C22.6957 11.057 22.7746 11.4318 22.7708 11.8241C22.768 12.1149 22.7736 12.4062 22.7684 12.697C22.7524 13.6548 22.0863 14.5725 21.1841 14.8945C20.8957 14.9974 20.6025 15.0503 20.2961 15.0479C19.7849 15.0437 19.2741 15.0451 18.7628 15.047C17.9858 15.0498 17.2191 14.9606 16.46 14.7954C14.9824 14.4739 13.6346 13.8654 12.4068 12.9859C11.7973 12.5497 11.254 12.0394 10.7285 11.5078C10.1842 10.9569 9.63378 10.4121 9.08617 9.86497C9.05643 9.83523 9.0248 9.80738 8.99411 9.77905C8.98326 9.7833 8.97287 9.78755 8.96201 9.7918V9.79274ZM19.1226 13.4528C19.123 13.4438 19.124 13.4353 19.1244 13.4263C19.5016 13.4263 19.8793 13.4263 20.2565 13.4263C20.2645 13.4263 20.2721 13.4263 20.2801 13.4263C20.7937 13.4263 21.1506 13.0572 21.1402 12.5672C21.135 12.3236 21.1435 12.0795 21.1374 11.8359C21.135 11.7349 21.1275 11.6287 21.0935 11.5347C20.9656 11.183 20.6733 10.9833 20.298 10.9819C19.7792 10.98 19.2604 10.9805 18.7416 10.9814C18.0689 10.9824 17.4132 10.8752 16.7707 10.6769C15.7085 10.3489 14.7785 9.79747 13.9892 9.01618C12.9629 8.00026 11.9422 6.97821 10.9254 5.95333C10.4019 5.42555 9.86557 4.91476 9.24904 4.49508C8.37947 3.90309 7.44098 3.4617 6.42412 3.186C5.88453 3.03966 5.33787 2.92022 4.78081 2.89568C4.0118 2.86216 3.24089 2.85933 2.47093 2.85555C1.98233 2.85319 1.64291 3.20111 1.63677 3.68735C1.63347 3.94652 1.63205 4.20617 1.63819 4.46581C1.64055 4.56259 1.65046 4.66503 1.68445 4.75425C1.81852 5.10453 2.10318 5.29384 2.48698 5.2962C2.96662 5.29903 3.44625 5.30044 3.92588 5.2962C4.6425 5.29006 5.34117 5.39486 6.02569 5.60824C7.02035 5.9184 7.90881 6.4188 8.65469 7.1425C9.71592 8.17304 10.7644 9.21728 11.7959 10.2776C12.725 11.2321 13.7451 12.0493 14.9678 12.5978C15.7788 12.9613 16.622 13.2172 17.5019 13.3291C18.0387 13.3975 18.582 13.4126 19.1226 13.4518V13.4528Z" fill="#FBA118"/>
<path d="M0.00590357 19.1097C0.00590357 18.8817 0.00920812 18.6537 0.00448733 18.4257C0.00259902 18.3332 0.0290354 18.2945 0.129116 18.2888C0.457211 18.2709 0.734321 18.1099 1.01001 17.9513C1.4448 17.7011 1.86967 17.432 2.31437 17.2007C3.07205 16.8065 3.88639 16.6573 4.73944 16.6795C5.72277 16.705 6.60273 17.0335 7.4317 17.5372C7.77962 17.7492 8.13085 17.9574 8.49057 18.1486C8.8654 18.3478 9.26148 18.3327 9.65802 18.2076C10.2311 18.0273 10.7429 17.7181 11.2702 17.4414C11.7361 17.1969 12.2063 16.9632 12.7133 16.815C13.1991 16.6729 13.6929 16.6384 14.1938 16.7215C14.8986 16.8381 15.5203 17.1643 16.1458 17.4848C16.5919 17.7133 17.0413 17.9366 17.4978 18.1434C18.0166 18.3785 18.544 18.3407 19.0491 18.1028C19.5986 17.8441 20.1363 17.5604 20.6778 17.2852C21.1125 17.0642 21.5568 16.8664 22.0345 16.7607C22.2403 16.7154 22.4542 16.7059 22.6643 16.6809C22.7355 16.6724 22.7728 16.696 22.7724 16.7777C22.77 17.2535 22.7724 17.7294 22.7681 18.2048C22.7681 18.2373 22.7247 18.2945 22.6973 18.2978C22.0912 18.3624 21.5766 18.6613 21.0479 18.928C20.5583 19.1749 20.0721 19.4317 19.5684 19.647C18.9509 19.9109 18.3008 20.0076 17.6314 19.8769C17.1192 19.7768 16.6415 19.5795 16.1779 19.3453C15.636 19.0715 15.1001 18.784 14.5511 18.5244C14.1711 18.345 13.7637 18.2251 13.3407 18.3445C13.0329 18.4314 12.7284 18.5423 12.44 18.6797C11.8985 18.9379 11.3754 19.233 10.8349 19.4935C10.2679 19.7669 9.67171 19.9472 9.03252 19.9312C8.42401 19.9156 7.87545 19.7022 7.35664 19.3996C6.94688 19.1603 6.54702 18.903 6.12687 18.6835C5.40507 18.3058 4.63841 18.217 3.83918 18.3794C3.29771 18.4894 2.83082 18.7571 2.36252 19.0318C1.96078 19.2674 1.55338 19.4964 1.13606 19.7027C0.831569 19.8533 0.494033 19.9061 0.15508 19.9297C0.00826397 19.9401 0.00684772 19.9359 0.00637565 19.7829C0.00637565 19.5587 0.00637565 19.3349 0.00637565 19.1107L0.00590357 19.1097Z" fill="#FBA118"/>
<path d="M0.00583248 23.1701C0.00583248 22.9383 0.00583248 22.706 0.00583248 22.4742C0.00583248 22.4185 0.00158377 22.3624 0.0851417 22.3595C0.427399 22.3468 0.715838 22.1848 1.00239 22.0206C1.44095 21.7689 1.8696 21.498 2.3176 21.2643C3.07529 20.8696 3.89009 20.7214 4.74267 20.7441C5.72553 20.77 6.60643 21.0995 7.43493 21.6042C7.77294 21.81 8.11331 22.0135 8.46123 22.2014C8.89696 22.4365 9.35676 22.4162 9.79296 22.2221C10.3618 21.9691 10.9146 21.6797 11.4712 21.4003C11.9348 21.167 12.4031 20.9471 12.911 20.829C13.4242 20.7096 13.9388 20.7129 14.4519 20.8385C15.2006 21.0216 15.8563 21.4121 16.5342 21.7562C16.9001 21.9422 17.2768 22.1098 17.6578 22.2627C18.0713 22.4284 18.4995 22.403 18.8979 22.2236C19.4658 21.9682 20.0191 21.6807 20.5757 21.4012C21.0393 21.168 21.5071 20.9452 22.0155 20.8314C22.2289 20.7837 22.4503 20.7729 22.6684 20.7455C22.7454 20.736 22.7718 20.7724 22.7718 20.8479C22.7699 21.3195 22.7718 21.7916 22.768 22.2632C22.768 22.2977 22.7298 22.359 22.7043 22.3614C22.1558 22.4185 21.6808 22.6716 21.2007 22.9137C20.6588 23.1875 20.1202 23.4713 19.5636 23.7125C18.9551 23.9764 18.3121 24.0708 17.6502 23.9452C17.1333 23.847 16.6508 23.6507 16.1844 23.4137C15.6812 23.1578 15.1874 22.8826 14.6752 22.6461C14.408 22.5224 14.1153 22.4412 13.8255 22.3817C13.5044 22.3156 13.1872 22.4072 12.8983 22.5417C12.3445 22.8 11.8012 23.0809 11.2559 23.3575C10.7683 23.6053 10.2707 23.8244 9.73159 23.9344C9.18823 24.0453 8.65384 24.0085 8.12889 23.8267C7.57419 23.6351 7.09456 23.3037 6.59888 23.0034C6.16693 22.7414 5.71704 22.5219 5.21663 22.427C4.76391 22.3416 4.31166 22.3472 3.85799 22.4374C3.20747 22.5668 2.66033 22.9128 2.10989 23.2546C1.70579 23.5053 1.29744 23.7507 0.832914 23.8716C0.598763 23.9325 0.354698 23.9566 0.115355 23.9962C0.033213 24.0099 0.00347208 23.9712 0.00441624 23.89C0.00724871 23.6502 0.0053604 23.4104 0.0053604 23.1706L0.00583248 23.1701Z" fill="#FBA118"/>
<path d="M18.4546 5.05728C18.1987 4.79717 17.949 4.54272 17.6983 4.28921C17.5992 4.18866 17.501 4.08716 17.398 3.98991C17.3376 3.93279 17.3287 3.88889 17.3933 3.82469C18.1534 3.06794 18.912 2.30979 19.6687 1.55021C19.7339 1.48506 19.7787 1.48554 19.8434 1.55068C20.1691 1.88067 20.4972 2.20829 20.8268 2.5345C20.881 2.58831 20.8952 2.62986 20.8343 2.69075C20.0592 3.46307 19.2854 4.23728 18.5112 5.01055C18.5003 5.02141 18.4871 5.03038 18.4546 5.05728Z" fill="#FBA118"/>
<path d="M14.7812 2.39763C14.9002 2.21871 15.0168 2.0431 15.1339 1.86796C15.5319 1.27078 15.9317 0.675013 16.3264 0.0759453C16.3882 -0.0179983 16.4364 -0.0179983 16.5227 0.0410115C16.8924 0.292157 17.2649 0.539526 17.6397 0.783591C17.735 0.845433 17.7407 0.898306 17.6784 0.991306C17.186 1.7235 16.6974 2.45805 16.2107 3.19355C16.1541 3.279 16.1092 3.30071 16.0157 3.23698C15.6371 2.97781 15.2538 2.72619 14.8724 2.47127C14.8436 2.45192 14.8181 2.42784 14.7812 2.3981V2.39763Z" fill="#FBA118"/>
<path d="M22.3969 5.96039C22.3719 5.98447 22.3502 6.01185 22.3223 6.03026C21.5684 6.53302 20.8131 7.03343 20.0606 7.53855C19.9803 7.59237 19.9444 7.56546 19.9015 7.50078C19.6485 7.11793 19.3964 6.7346 19.1377 6.35552C19.0787 6.26913 19.0881 6.22617 19.1735 6.16999C19.6551 5.85323 20.1338 5.53127 20.6134 5.2112C20.8811 5.03276 21.1506 4.85714 21.4164 4.67634C21.4773 4.6348 21.5169 4.62913 21.5604 4.69522C21.8266 5.09743 22.0948 5.4987 22.362 5.90044C22.3728 5.91649 22.3813 5.93396 22.3964 5.96039H22.3969Z" fill="#FBA118"/>
</svg>
