<svg width="23" height="23" viewBox="0 0 23 23" fill="none" xmlns="http://www.w3.org/2000/svg">
<path d="M4.08887 10.6427L6.15891 8.573C5.01565 8.57304 4.08887 9.49982 4.08887 10.6427Z" fill="#FBA118"/>
<path d="M20.4137 0V9.5656H19.4426C18.9375 7.51169 17.0842 5.98812 14.8744 5.98812H5.93983C3.73035 5.98812 1.87755 7.51173 1.372 9.5656H0.363281V11.9739H1.41297C1.97108 13.9497 3.78596 15.398 5.93983 15.398C7.75997 15.398 8.89343 14.6802 9.91536 13.3182C10.1021 13.0686 10.2893 12.986 10.4073 12.986C10.5254 12.986 10.7125 13.0686 10.8992 13.3182C11.9208 14.6802 13.0546 15.398 14.8744 15.398C17.029 15.398 18.8439 13.9496 19.4016 11.9739H20.4137V14.5062C20.4133 15.0955 20.2949 15.6514 20.0807 16.1591C19.7586 16.9202 19.2185 17.5711 18.5398 18.0293C18.2008 18.2586 17.8276 18.4397 17.4292 18.5633C17.0308 18.6873 16.6077 18.7542 16.1653 18.7542H13.4695C13.4424 18.6716 13.4127 18.5896 13.3789 18.5099C13.1331 17.9289 12.7246 17.4369 12.209 17.0889C11.6941 16.7405 11.0676 16.5361 10.4012 16.5361C9.95741 16.5361 9.53043 16.6267 9.14333 16.7909C8.56196 17.0363 8.07038 17.4452 7.72196 17.9605C7.37355 18.4754 7.16916 19.1019 7.16947 19.7682C7.16947 20.2121 7.26008 20.6394 7.42355 21.0265C7.67008 21.6076 8.0786 22.0991 8.59385 22.4475C9.10834 22.7959 9.73487 23.0003 10.4012 23C10.8451 23 11.2724 22.9098 11.6595 22.7456C12.2409 22.4994 12.7325 22.0909 13.0805 21.5756C13.1948 21.4068 13.2933 21.2257 13.3744 21.0356H16.1653C17.0639 21.0356 17.9257 20.8529 18.7074 20.5218C19.8807 20.0253 20.8752 19.1993 21.5795 18.1575C21.9309 17.6366 22.2105 17.0616 22.4011 16.4474C22.5923 15.8334 22.6949 15.1798 22.6949 14.5063V0H20.4137ZM14.8744 13.6238C13.7319 13.6238 13.0873 13.278 12.3187 12.2535C11.8219 11.5913 11.1255 11.2113 10.4073 11.2113C9.68945 11.2113 8.99231 11.5913 8.49579 12.2535C7.72758 13.278 7.08232 13.6238 5.93978 13.6238C4.32413 13.6238 3.00944 12.3088 3.00944 10.6931C3.00944 9.07699 4.32408 7.76235 5.93978 7.76235H14.8744C16.4908 7.76235 17.8055 9.07699 17.8055 10.6931C17.8055 12.3088 16.4908 13.6238 14.8744 13.6238ZM11.7448 20.335C11.6347 20.5958 11.4487 20.8198 11.2157 20.9773C10.9819 21.1344 10.7061 21.2253 10.4012 21.2257C10.1979 21.2257 10.0085 21.1847 9.83414 21.1114C9.57405 21.0013 9.3497 20.8153 9.19221 20.5822C9.03512 20.3489 8.9442 20.073 8.94379 19.7682C8.9442 19.5641 8.98476 19.3751 9.05807 19.2011C9.16818 18.9406 9.3542 18.7163 9.58725 18.5592C9.82102 18.4017 10.0965 18.3108 10.4013 18.3108C10.6054 18.3108 10.7944 18.3514 10.9684 18.425C11.2288 18.5347 11.4532 18.7208 11.6103 18.9538C11.7678 19.1876 11.8587 19.463 11.8587 19.7682C11.8587 19.9719 11.8181 20.1613 11.7448 20.335Z" fill="#FBA118"/>
</svg>
