<svg width="199" height="46" viewBox="0 0 199 46" fill="none" xmlns="http://www.w3.org/2000/svg">
<g clip-path="url(#clip0_5062_1464)">
<path d="M9.02148 0.0551376H13.7154C13.9002 0.618766 13.928 45.1546 13.737 45.9357H9.02148V0.0551376Z" fill="white"/>
<path d="M34.7945 45.9418H30.581C30.4178 45.3475 30.3901 0.894453 30.5502 0.0735168H34.7175C34.7329 0.0888328 34.7483 0.107212 34.7668 0.125591C34.7822 0.14397 34.8068 0.162349 34.8099 0.180729C34.8284 0.275688 34.8499 0.37371 34.8499 0.471732C34.8499 15.5028 34.8499 30.5339 34.8499 45.565C34.8499 45.66 34.8222 45.7549 34.7945 45.9449V45.9418Z" fill="white"/>
<path d="M194.706 0.0490112H198.843C198.883 0.091896 198.898 0.107212 198.917 0.125591C198.932 0.14397 198.957 0.162349 198.96 0.183792C198.975 0.278751 199 0.376773 199 0.474795C199 15.5059 199 30.5339 199 45.565C199 45.66 198.972 45.758 198.96 45.8468C198.427 46.0245 195.516 46.0551 194.722 45.8989C194.568 45.3475 194.54 0.894453 194.709 0.0520744L194.706 0.0490112Z" fill="white"/>
<path d="M19.3237 45.9418H15.1133V0.0765762C16.5301 0.0765762 17.9223 0.0765762 19.3144 0.0765762C19.4992 0.634078 19.5208 45.2128 19.3237 45.9418Z" fill="white"/>
<path d="M185.35 0.0520706H189.498C189.689 0.624888 189.714 45.1852 189.52 45.9418H185.377C185.226 45.3445 185.196 0.937334 185.35 0.0520706Z" fill="white"/>
<path d="M24.9604 0.0490074H29.1092C29.2848 0.57894 29.3618 44.5358 29.1831 45.9541C27.791 46.0123 26.3834 46 24.9912 45.9571C24.8187 45.3445 24.791 0.897512 24.9604 0.0459442V0.0490074Z" fill="white"/>
<path d="M166.651 0.0490112H170.796C170.975 0.582007 171.052 44.4347 170.886 45.8377C170.387 46.0184 167.513 46.0613 166.669 45.8989C166.518 45.3506 166.484 0.946527 166.651 0.0490112Z" fill="white"/>
<path d="M157.247 0.0673904H161.47C161.63 0.618766 161.667 45.0382 161.498 45.9387C160.108 46.0368 158.701 45.9755 157.247 45.9786V0.0673904Z" fill="white"/>
<path d="M102.152 0.0245056C103.418 0.0245056 104.647 0.0245056 105.876 0.0245056C106.017 0.0245056 106.162 0.045948 106.356 0.061264V45.9326H102.173C102.022 45.3475 101.995 0.903643 102.155 0.0245056H102.152Z" fill="white"/>
<path d="M52.6745 0.061264H56.8171C56.9773 0.66165 57.0019 45.1392 56.8448 45.9326H52.6991C52.5451 45.3445 52.5174 0.897516 52.6745 0.061264Z" fill="white"/>
<path d="M65.2656 45.9296V0.156226C65.8015 -0.00612304 68.2132 -0.052071 69.4668 0.0673936C69.4791 0.0796464 69.4945 0.0980256 69.5099 0.116405C69.5253 0.134784 69.553 0.1501 69.5561 0.171542C69.5746 0.315512 69.5992 0.462546 69.5992 0.606516C69.5992 15.6284 69.5931 30.6503 69.5869 45.6692C69.5869 45.7366 69.5469 45.807 69.5099 45.9265H65.2656V45.9296Z" fill="white"/>
<path d="M77.8318 45.9449H73.7046C73.6553 45.9081 73.6337 45.8959 73.6183 45.8775C73.6029 45.8591 73.5844 45.8377 73.5844 45.8162C73.566 30.8372 73.5506 15.8551 73.5352 0.876077C73.5352 0.634084 73.5352 0.392092 73.5352 0.165416C74.1019 -0.00306012 76.6306 -0.0459449 77.7548 0.0765829C77.7733 0.0918989 77.7948 0.107215 77.8102 0.125594C77.8256 0.143973 77.8441 0.162352 77.8503 0.183795C77.8657 0.278754 77.8903 0.376776 77.8903 0.471735C77.8903 15.5028 77.8903 30.5339 77.8903 45.565C77.8903 45.66 77.8626 45.758 77.8349 45.9449H77.8318Z" fill="white"/>
<path d="M92.9639 0.0643305C93.2195 0.0490146 93.4136 0.024509 93.6045 0.024509C94.7811 0.0214458 95.9607 0.024509 97.0634 0.024509C97.1589 0.0980257 97.1804 0.110278 97.1958 0.128658C97.2112 0.147037 97.2266 0.168479 97.2297 0.189922C97.2482 0.284881 97.2759 0.382903 97.2759 0.477862C97.2759 15.4508 97.279 30.4237 97.279 45.3966C97.279 45.5191 97.2667 45.6416 97.2482 45.7611C97.242 45.807 97.2051 45.8468 97.1527 45.9418H92.9639V0.0643305Z" fill="white"/>
<path d="M121.796 45.9357H117.657C117.509 45.3537 117.472 0.986349 117.607 0.134781C118.137 -0.00306287 120.811 -0.0398212 121.775 0.0796434C121.941 0.609576 121.972 45.1331 121.796 45.9357Z" fill="white"/>
<path d="M123.386 0.0214386H127.55C127.735 0.624888 127.766 45.1576 127.587 45.9357H123.386V0.0214386Z" fill="white"/>
<path d="M129.053 0.061264H133.196C133.35 0.66165 133.377 45.1362 133.223 45.9326H129.078C128.927 45.3445 128.899 0.90058 129.053 0.061264Z" fill="white"/>
<path d="M176.014 0.061264H180.16C180.308 0.658587 180.336 45.1239 180.188 45.9326H176.042C175.894 45.3506 175.863 0.912832 176.014 0.061264Z" fill="white"/>
<path d="M44.2507 45.9387H43.145C42.9663 45.3751 42.9417 0.81481 43.1203 0.061264H44.186C44.3431 0.597323 44.4109 44.5327 44.2507 45.9387Z" fill="white"/>
<path d="M140.276 45.9418H139.174C139.011 45.3965 138.952 1.2651 139.112 0.088829H140.23C140.375 0.603446 140.433 44.7226 140.276 45.9418Z" fill="white"/>
<path d="M164.654 45.9418H163.552C163.388 45.3935 163.33 1.25897 163.49 0.088829H164.608C164.753 0.603446 164.808 44.7288 164.654 45.9418Z" fill="white"/>
<path d="M91.0727 45.9418H89.97C89.8068 45.3996 89.739 1.39682 89.9023 0.0918961H91.0234C91.1712 0.597323 91.2328 44.6828 91.0727 45.9418Z" fill="white"/>
<path d="M62.8879 45.9418H61.7884C61.6313 45.3445 61.6036 0.891386 61.7576 0.0704498H62.8232C62.9865 0.575877 63.0604 44.5205 62.8879 45.9418Z" fill="white"/>
<path d="M72.2361 45.9387H71.1889C71.0318 45.3874 70.9671 1.42438 71.1211 0.088829H72.2422C72.4086 0.66471 72.4178 45.2465 72.2361 45.9387Z" fill="white"/>
<path d="M80.3271 45.9295V0.0612654C80.5735 0.0459494 80.7676 0.024507 80.9616 0.0275702C81.128 0.0275702 81.2974 0.0520758 81.513 0.0704549V45.9295H80.3271Z" fill="white"/>
<path d="M86.8068 0.0673904H87.9772V45.9265H86.8622C86.8622 45.9265 86.8314 45.8989 86.816 45.8805C86.8006 45.8622 86.776 45.8468 86.7698 45.8254C86.7514 45.7059 86.7236 45.5834 86.7236 45.4639C86.7236 30.4175 86.7267 15.3742 86.7329 0.327762C86.7329 0.260372 86.7698 0.189918 86.8068 0.0673904Z" fill="white"/>
<path d="M143.255 45.9387H142.152C141.973 45.3537 141.952 0.793364 142.131 0.058197H143.193C143.347 0.606509 143.412 44.5787 143.255 45.9387Z" fill="white"/>
<path d="M1.25665 45.9541H0.157081C0.120121 45.9142 0.104721 45.8989 0.0893205 45.8805C0.0739205 45.8622 0.0492803 45.8438 0.0462003 45.8254C0.0277202 45.6784 0 45.5344 0 45.3904C0 30.3685 0.00308002 15.3466 0.00924006 0.324699C0.00924006 0.257309 0.0462003 0.186855 0.0831605 0.0735168H1.25665V45.9541Z" fill="white"/>
<path d="M46.9214 45.9357H45.8311V0.0796432H46.9121C46.9121 0.0796432 46.946 0.104149 46.9614 0.122528C46.9768 0.140907 46.9953 0.16235 46.9984 0.183792C47.0169 0.278751 47.0446 0.376773 47.0446 0.471732C47.0446 15.4691 47.0477 30.4696 47.0446 45.467C47.0446 45.565 47.0323 45.6631 47.0138 45.758C47.0045 45.804 46.9707 45.8438 46.9183 45.9357H46.9214Z" fill="white"/>
<path d="M49.7019 45.9418H48.6671C48.51 45.369 48.4638 1.06293 48.6147 0.0796432H49.6773C49.8436 0.588134 49.8806 45.0841 49.7019 45.9418Z" fill="white"/>
<path d="M6.51465 0.0520706H7.59265C7.76206 0.634078 7.7867 45.1821 7.61422 45.9387H6.51465V0.0520706Z" fill="white"/>
<path d="M98.5576 0.0520706H99.6326C99.802 0.612635 99.8328 45.1392 99.6603 45.9357H98.5576V0.0520706Z" fill="white"/>
<path d="M111.614 45.9418H110.576C110.425 45.3659 110.382 1.06906 110.526 0.0796432H111.586C111.749 0.591197 111.789 45.0872 111.611 45.9418H111.614Z" fill="white"/>
<path d="M115.307 45.9357H114.204V0.0796432H115.285C115.448 0.612639 115.479 45.1392 115.307 45.9387V45.9357Z" fill="white"/>
<path d="M145.062 0.0551376H146.153C146.31 0.606513 146.375 44.6338 146.221 45.9173H145.062V0.0551376Z" fill="white"/>
<path d="M148.044 0.0520706H149.119C149.288 0.612635 149.322 45.1362 149.147 45.9357H148.044V0.0520706Z" fill="white"/>
<path d="M151.014 0.0551376H152.082C152.255 0.59426 152.295 45.0902 152.119 45.9357H151.017V0.0551376H151.014Z" fill="white"/>
<path d="M41.4386 45.9418H40.3359V0.0857678C40.5269 0.0643254 40.7148 0.0336935 40.9027 0.0275671C41.0721 0.0214407 41.2415 0.0459463 41.4047 0.0551358C41.5772 0.597321 41.6141 45.0964 41.4386 45.9449V45.9418Z" fill="white"/>
<path d="M174.397 45.9387H173.294V0.0765762H174.384C174.551 0.649394 174.566 45.2128 174.394 45.9387H174.397Z" fill="white"/>
<path d="M21.594 0.0551338H22.6597C22.8137 0.612635 22.8753 44.6859 22.7213 45.9173H21.6525C21.6525 45.9173 21.6371 45.905 21.6186 45.8867C21.6032 45.8683 21.5817 45.8499 21.5786 45.8285C21.557 45.709 21.5293 45.5895 21.5293 45.467C21.5293 30.4451 21.5293 15.4201 21.5324 0.398212C21.5324 0.306316 21.5632 0.211357 21.594 0.0520706V0.0551338Z" fill="white"/>
</g>
<defs>
<clipPath id="clip0_5062_1464">
<rect width="199" height="46" fill="white"/>
</clipPath>
</defs>
</svg>
