<svg width="44" height="43" viewBox="0 0 44 43" fill="none" xmlns="http://www.w3.org/2000/svg">
<g clip-path="url(#clip0_4423_1552)">
<path d="M2.49868 43.0001C2.14973 42.7605 2.03953 42.4327 2.06134 42.0167C2.09119 41.4561 2.06823 40.8931 2.06823 40.2861C1.62171 40.2861 1.21077 40.2918 0.800985 40.285C0.26608 40.276 0.00895778 40.0296 0.00895778 39.5017C0.00551418 36.8171 -0.0128517 34.1336 0.015845 31.449C0.0433938 28.7938 1.8134 26.4664 4.38921 25.6774C4.76227 25.5632 4.82655 25.3959 4.8254 25.0591C4.81507 21.8658 4.81852 18.6737 4.81966 15.4804C4.81966 14.7027 5.01824 14.5083 5.80912 14.5083C16.6025 14.5083 27.3959 14.5083 38.1893 14.5083C38.9997 14.5083 39.1879 14.6993 39.1891 15.5143C39.1891 18.6929 39.1891 21.8715 39.1891 25.05V25.5304C40.1406 25.7915 41.0015 26.1883 41.7431 26.8145C42.9552 27.8375 43.6933 29.1205 43.9275 30.6815C43.9378 30.747 43.9757 30.8092 44.0009 30.8736V39.8623C43.7587 40.2025 43.4304 40.3257 43.0115 40.2918C42.6637 40.2635 42.3124 40.2861 41.9394 40.2861C41.9394 40.9033 41.9175 41.4651 41.9462 42.0235C41.968 42.4372 41.8533 42.7605 41.5089 43.0001H2.49868ZM1.46101 36.8657H42.6097C42.6097 34.9452 42.6143 33.053 42.604 31.1619C42.6028 30.9256 42.542 30.686 42.4846 30.4543C41.929 28.2105 40.0029 26.7218 37.636 26.7207C27.2134 26.7173 16.7908 26.7196 6.36813 26.7196C6.26827 26.7196 6.16726 26.7196 6.06739 26.723C3.80725 26.7987 1.68255 28.5372 1.49659 30.7482C1.32671 32.7647 1.46101 34.8062 1.46101 36.8657ZM36.4376 25.3417H37.7864V15.893H6.2258V25.3405H7.5688C7.5688 24.8703 7.56651 24.4216 7.5688 23.9728C7.57684 22.3971 8.67649 21.2972 10.2617 21.2938C12.8237 21.2882 15.3869 21.2871 17.949 21.2938C19.5101 21.2984 20.6154 22.3982 20.6281 23.9445C20.6315 24.4057 20.6281 24.868 20.6281 25.3338H23.3784C23.3784 24.8398 23.3749 24.3752 23.3784 23.9106C23.3933 22.4163 24.501 21.3006 26.0047 21.295C28.6103 21.2848 31.216 21.2848 33.8216 21.295C35.3035 21.3006 36.4158 22.4118 36.4365 23.879C36.4434 24.356 36.4365 24.8341 36.4365 25.3405L36.4376 25.3417ZM40.5424 40.3155H3.47781V41.6222H40.5424V40.3155ZM42.6063 38.2809H1.40132V38.9082H42.6063V38.2809ZM19.2529 25.3462C19.2529 25.1958 19.2529 25.0851 19.2529 24.9743C19.2518 24.5787 19.2679 24.1819 19.2437 23.7885C19.2047 23.1544 18.7203 22.6627 18.0729 22.6593C15.4259 22.6446 12.7778 22.6469 10.1308 22.6582C9.53395 22.6605 9.02659 23.0855 8.9715 23.654C8.91869 24.209 8.96002 24.772 8.96002 25.3473H19.2529V25.3462ZM35.0602 25.3462C35.0602 24.8059 35.0774 24.3119 35.0556 23.8191C35.0281 23.1623 34.5368 22.6616 33.8722 22.6582C31.2252 22.6446 28.577 22.6458 25.9301 22.6582C25.3515 22.6605 24.8476 23.0708 24.7891 23.6224C24.7294 24.1887 24.7753 24.7663 24.7753 25.3451H35.059L35.0602 25.3462Z" fill="white"/>
<path d="M43.9998 5.2651C43.2376 6.02583 42.5145 6.83177 41.6983 7.53147C41.0969 8.04691 40.9052 8.55105 41.1198 9.31856C41.3494 10.1449 41.4355 11.0096 41.5801 11.8574C41.6387 12.1987 41.6788 12.5423 41.3368 12.7797C40.9993 13.0126 40.6882 12.8713 40.3749 12.7063C39.3911 12.1897 38.3994 11.6867 37.4203 11.161C37.2033 11.0446 37.0438 11.0548 36.8325 11.1667C35.8259 11.7002 34.8077 12.2134 33.7976 12.7436C33.5003 12.8995 33.2133 12.9843 32.9126 12.7775C32.6073 12.5672 32.6038 12.2598 32.6589 11.9399C32.8483 10.8559 33.0297 9.76958 33.2351 8.68895C33.2914 8.39393 33.2317 8.19273 33.0067 7.98248C32.1952 7.22627 31.4077 6.44632 30.6065 5.67881C30.3701 5.45161 30.183 5.21762 30.3 4.86269C30.416 4.51228 30.6995 4.41054 31.0266 4.36533C32.1309 4.21047 33.2328 4.04657 34.3382 3.90414C34.6344 3.86571 34.8146 3.75494 34.9477 3.47574C35.4161 2.49345 35.9188 1.527 36.4009 0.550367C36.5548 0.238387 36.7453 -0.00237913 37.1344 0.00101194C37.5259 0.00440302 37.7084 0.257604 37.8599 0.566192C38.334 1.53039 38.8287 2.48554 39.2867 3.45652C39.4244 3.74815 39.6046 3.87249 39.9237 3.91319C41.0016 4.0477 42.0748 4.21951 43.1515 4.35742C43.5143 4.40376 43.7966 4.54393 43.9975 4.84347V5.26736L43.9998 5.2651ZM40.0316 10.9858C39.9192 10.3461 39.8113 9.80801 39.7321 9.26657C39.4795 7.55181 39.2488 8.04917 40.531 6.78656C40.9408 6.38302 41.3471 5.97722 41.7925 5.53525C40.9052 5.40865 40.0879 5.2764 39.266 5.18145C38.7965 5.12719 38.4751 4.94633 38.2823 4.49758C38.055 3.96631 37.7715 3.45765 37.5109 2.94108C37.395 2.71048 37.2745 2.48328 37.1218 2.18713C36.8165 2.79187 36.5571 3.30844 36.2965 3.82276C35.5607 5.27188 35.9028 5.02659 34.2498 5.27301C33.6702 5.35892 33.0905 5.44821 32.5235 5.53525C33.017 6.04391 33.4383 6.57518 33.956 6.98776C34.6321 7.52695 34.833 8.11812 34.5896 8.94555C34.4025 9.57968 34.3554 10.2534 34.2338 10.987C35.0798 10.5484 35.8442 10.1686 36.5903 9.75714C36.9691 9.54803 37.302 9.55594 37.6774 9.76053C38.4246 10.1686 39.188 10.5484 40.0328 10.9858H40.0316Z" fill="white"/>
<path d="M2.39467 12.0667C2.57947 11.0087 2.76543 9.8659 2.98352 8.72876C3.04665 8.39983 2.98008 8.1828 2.72869 7.95107C1.92404 7.20843 1.14693 6.43526 0.353759 5.67905C0.115003 5.45185 -0.0675075 5.21221 0.0495749 4.86067C0.165509 4.51252 0.452476 4.41192 0.780765 4.36557C1.88501 4.21071 2.98926 4.04681 4.09465 3.90439C4.3931 3.86595 4.57102 3.75292 4.70302 3.47372C5.16447 2.50274 5.6592 1.54759 6.13671 0.58339C6.29741 0.263499 6.48222 -0.00665717 6.8966 0.000124991C7.28802 0.00690715 7.46823 0.262368 7.61975 0.569826C8.10185 1.54646 8.60003 2.51631 9.06836 3.49859C9.19462 3.76309 9.36336 3.86935 9.64688 3.90665C10.7672 4.05359 11.8841 4.22428 13.0032 4.37801C13.3407 4.42435 13.6093 4.5453 13.7138 4.89345C13.8148 5.22917 13.638 5.45976 13.4119 5.67566C12.59 6.46352 11.7624 7.24573 10.96 8.05168C10.8349 8.17715 10.7465 8.42469 10.7729 8.59651C10.9348 9.65679 11.138 10.7114 11.3159 11.7694C11.3526 11.9887 11.3848 12.2272 11.3377 12.4386C11.2401 12.8681 10.7557 13.0207 10.2897 12.7834C9.2612 12.2577 8.23271 11.7299 7.21685 11.1828C6.97235 11.0505 6.79444 11.055 6.55224 11.185C5.53523 11.731 4.50674 12.2589 3.4771 12.7811C2.88595 13.0818 2.36597 12.7709 2.39581 12.0656L2.39467 12.0667ZM9.78118 10.9838C9.62737 10.0761 9.51029 9.24081 9.33581 8.41678C9.24168 7.97368 9.36336 7.66961 9.68017 7.36216C10.2885 6.77211 10.8636 6.14815 11.4617 5.52871C10.7155 5.41794 9.94877 5.26534 9.17396 5.20204C8.55756 5.1523 8.19024 4.8991 7.95034 4.33279C7.65189 3.62519 7.26965 2.95262 6.88053 2.17946C6.47762 2.98201 6.09194 3.68397 5.76939 4.41418C5.54785 4.91493 5.21153 5.13987 4.66629 5.193C3.86508 5.27099 3.06961 5.41568 2.31317 5.52645C2.90661 6.14476 3.4794 6.77098 4.08662 7.36329C4.40228 7.67187 4.52166 7.97933 4.42983 8.42017C4.2565 9.2442 4.13827 10.0784 3.98331 10.9895C4.80059 10.5656 5.55474 10.1994 6.28249 9.78791C6.7049 9.5494 7.06878 9.55618 7.4866 9.78791C8.21664 10.1937 8.96849 10.5633 9.78118 10.985V10.9838Z" fill="white"/>
<path d="M17.5175 12.0712C17.7 11.0188 17.8802 9.88848 18.0983 8.76604C18.1684 8.40658 18.0983 8.17034 17.8206 7.91714C17.0331 7.1971 16.2801 6.44089 15.5088 5.70276C15.2631 5.46765 15.0542 5.22914 15.1816 4.85386C15.309 4.48084 15.6224 4.40398 15.9587 4.3565C17.0205 4.20617 18.0811 4.04452 19.1452 3.9134C19.4873 3.87158 19.7008 3.75402 19.8546 3.42735C20.3126 2.45524 20.813 1.50235 21.2883 0.538149C21.4352 0.239735 21.6188 0.00914133 21.9862 0.00122881C22.3753 -0.00781406 22.5716 0.227301 22.7265 0.541541C23.2132 1.53174 23.7217 2.51176 24.1958 3.5076C24.3244 3.77776 24.5 3.87045 24.7789 3.90775C25.8992 4.05583 27.015 4.22651 28.1341 4.38024C28.4739 4.42659 28.8022 4.55206 28.8171 4.90247C28.8274 5.15793 28.6989 5.48347 28.5175 5.66998C27.745 6.46462 26.9381 7.22762 26.1254 7.98383C25.9004 8.19294 25.8361 8.39302 25.8924 8.68917C26.0944 9.74267 26.2746 10.8007 26.4571 11.8576C26.5134 12.1809 26.5616 12.5132 26.247 12.7528C25.9578 12.9732 25.6685 12.9212 25.3666 12.763C24.3565 12.2328 23.3361 11.7219 22.334 11.1794C22.086 11.0448 21.907 11.0595 21.6694 11.1873C20.6512 11.731 19.6239 12.2611 18.5942 12.7833C18.0054 13.0817 17.4854 12.7675 17.5175 12.0701V12.0712ZM24.904 10.9838C24.7468 10.0637 24.6217 9.21818 24.4518 8.38058C24.3691 7.97365 24.4667 7.67637 24.7697 7.39717C25.323 6.88625 25.8579 6.35498 26.3974 5.82936C26.4812 5.74798 26.5524 5.65529 26.6603 5.53095C25.7592 5.40322 24.9259 5.27775 24.0902 5.17149C23.677 5.11837 23.3774 4.96351 23.1937 4.56223C22.8769 3.86932 22.5188 3.19336 22.1744 2.51289C22.1296 2.42359 22.0619 2.34559 21.9781 2.22125C21.5821 3.01251 21.1918 3.73481 20.8567 4.48084C20.6501 4.94203 20.3229 5.12741 19.8385 5.1828C19.0224 5.27549 18.2108 5.41 17.4291 5.5219C18.0444 6.16056 18.6413 6.80147 19.2646 7.41639C19.547 7.69558 19.6365 7.9827 19.5607 8.36815C19.3954 9.20914 19.2634 10.0569 19.1039 10.9861C19.92 10.5633 20.6719 10.1971 21.3996 9.78788C21.8186 9.55163 22.1825 9.54598 22.6037 9.7811C23.3338 10.1892 24.0856 10.5577 24.9052 10.9815L24.904 10.9838Z" fill="white"/>
</g>
<defs>
<clipPath id="clip0_4423_1552">
<rect width="44" height="43" fill="white"/>
</clipPath>
</defs>
</svg>
