<svg width="235" height="182" viewBox="0 0 235 182" fill="none" xmlns="http://www.w3.org/2000/svg">
<path opacity="0.5" d="M35.3613 2.42118L29.0252 3.72973L26.4311 1.87022L24.4108 4.69394L22.8957 5.01534L20.3474 3.17877L18.3502 5.95657L14.9526 6.66825C14.9526 6.66825 14.2638 6.8519 12.8864 6.57642C10.7744 5.10717 8.70824 3.7527 6.87168 2.62781C3.40517 0.515761 0.581464 -0.471398 0.0764094 0.217313C-0.405688 0.906023 1.43087 3.24764 4.53007 5.86474C6.18297 7.24216 8.13432 8.75732 10.2005 10.2954C10.8892 11.5122 10.958 12.2009 10.958 12.2009L11.3713 15.6444L9.6954 17.9861L11.8534 19.5242L12.1288 21.7739L10.4071 24.1615L12.6109 25.7455L13.4833 32.8852L15.1592 33.7346L15.9397 27.2148C16.1004 27.1229 16.2381 27.0081 16.3529 26.8474L17.1335 25.7455C17.5467 25.1716 17.409 24.3451 16.835 23.9319L16.3529 23.5876L17.3171 15.346C21.7937 18.4452 25.5128 20.8786 26.1097 21.3148C26.4999 21.5903 28.1758 22.4168 29.9205 23.2203L29.9664 29.1891L30.8618 29.8319L33.5707 24.7354C34.1217 24.9191 34.466 24.9879 34.5349 24.9191C34.6038 24.8272 34.3971 24.5288 34.0528 24.0697L38.0243 19.8685L37.129 19.2257L31.4587 21.0852C30.1501 19.6849 28.8186 18.3763 28.4283 18.0779C27.8314 17.6646 24.342 14.9098 19.9572 11.6729L27.9921 7.862L28.2217 8.0227C28.7956 8.43593 29.6221 8.29819 30.0353 7.72427L30.8158 6.62232C30.8158 6.62232 30.8847 6.50753 30.9306 6.43866L36.6699 3.70679L35.3154 2.39824L35.3613 2.42118Z" fill="white"/>
<g opacity="0.1" clip-path="url(#clip0_5073_1421)">
<path d="M323.976 244.572V131.325C202.579 147.211 37.1511 20.7407 37.1511 20.7407L32.2383 27.3753C32.2383 27.3753 231.367 129.924 323.976 244.572Z" fill="white"/>
</g>
<defs>
<clipPath id="clip0_5073_1421">
<rect width="291.845" height="160.961" fill="white" transform="translate(32.2441 21.0393)"/>
</clipPath>
</defs>
</svg>
