<svg width="346" height="91" viewBox="0 0 346 91" fill="none" xmlns="http://www.w3.org/2000/svg">
<path d="M119.715 90.0025C120.602 89.8963 121.101 89.7371 121.323 89.5248C121.545 89.3126 121.655 88.7288 121.655 87.8267V78.6991C121.655 77.9561 121.545 77.4785 121.267 77.2132C121.046 77.0009 120.491 76.8417 119.715 76.7887V76.4702H125.813V76.8417C124.981 76.8948 124.482 77.054 124.205 77.2663C123.984 77.4785 123.817 78.0092 123.817 78.7521V82.8383H130.469V78.7521C130.469 78.0092 130.358 77.5316 130.137 77.2663C129.915 77.054 129.36 76.8948 128.584 76.8417V76.4702H134.682V76.8417C133.85 76.8948 133.352 77.054 133.13 77.2663C132.908 77.4785 132.797 78.0092 132.797 78.7521V88.1451C132.797 88.888 132.908 89.4187 133.13 89.631C133.352 89.8432 133.906 90.0025 134.682 90.0555V90.427H128.584V90.0555C129.471 89.9494 129.97 89.8433 130.192 89.5779C130.414 89.3657 130.525 88.7819 130.525 87.8798V83.7936H123.873V88.1451C123.873 88.888 123.984 89.4187 124.261 89.631C124.482 89.8432 125.037 90.0025 125.868 90.0555V90.427H119.771V90.0025H119.715Z" fill="white"/>
<path d="M119.715 90.0025C120.602 89.8963 121.101 89.7371 121.323 89.5248C121.545 89.3126 121.655 88.7288 121.655 87.8267V78.6991C121.655 77.9561 121.545 77.4785 121.267 77.2132C121.046 77.0009 120.491 76.8417 119.715 76.7887V76.4702H125.813V76.8417C124.981 76.8948 124.482 77.054 124.205 77.2663C123.984 77.4785 123.817 78.0092 123.817 78.7521V82.8383H130.469V78.7521C130.469 78.0092 130.358 77.5316 130.137 77.2663C129.915 77.054 129.36 76.8948 128.584 76.8417V76.4702H134.682V76.8417C133.85 76.8948 133.352 77.054 133.13 77.2663C132.908 77.4785 132.797 78.0092 132.797 78.7521V88.1451C132.797 88.888 132.908 89.4187 133.13 89.631C133.352 89.8432 133.906 90.0025 134.682 90.0555V90.427H128.584V90.0555C129.471 89.9494 129.97 89.8433 130.192 89.5779C130.414 89.3657 130.525 88.7819 130.525 87.8798V83.7936H123.873V88.1451C123.873 88.888 123.984 89.4187 124.261 89.631C124.482 89.8432 125.037 90.0025 125.868 90.0555V90.427H119.771V90.0025H119.715Z" fill="white"/>
<path d="M145.047 88.3574C145.934 89.4187 147.098 89.9494 148.428 89.9494C149.703 89.9494 150.812 89.4187 151.754 88.4104C152.697 87.3491 153.14 85.704 153.14 83.4221C153.14 81.1402 152.697 79.442 151.754 78.4338C150.812 77.4255 149.703 76.8948 148.428 76.8948C147.098 76.8948 145.989 77.4255 145.047 78.4868C144.16 79.5482 143.661 81.1933 143.661 83.4221C143.717 85.6509 144.16 87.296 145.047 88.3574ZM143.439 78.0092C144.77 76.7887 146.433 76.1519 148.428 76.1519C150.424 76.1519 152.087 76.7887 153.417 78.0092C154.914 79.3359 155.634 81.1402 155.634 83.4221C155.634 85.704 154.858 87.5083 153.362 88.8881C151.976 90.1086 150.368 90.6923 148.428 90.6923C146.377 90.6923 144.659 90.0025 143.273 88.6758C141.887 87.296 141.222 85.5448 141.222 83.4221C141.222 81.1933 141.943 79.389 143.439 78.0092Z" fill="white"/>
<path d="M145.047 88.3574C145.934 89.4187 147.098 89.9494 148.428 89.9494C149.703 89.9494 150.812 89.4187 151.754 88.4104C152.697 87.3491 153.14 85.704 153.14 83.4221C153.14 81.1402 152.697 79.442 151.754 78.4338C150.812 77.4255 149.703 76.8948 148.428 76.8948C147.098 76.8948 145.989 77.4255 145.047 78.4868C144.16 79.5482 143.661 81.1933 143.661 83.4221C143.717 85.6509 144.16 87.296 145.047 88.3574ZM143.439 78.0092C144.77 76.7887 146.433 76.1519 148.428 76.1519C150.424 76.1519 152.087 76.7887 153.417 78.0092C154.914 79.3359 155.634 81.1402 155.634 83.4221C155.634 85.704 154.858 87.5083 153.362 88.8881C151.976 90.1086 150.368 90.6923 148.428 90.6923C146.377 90.6923 144.659 90.0025 143.273 88.6758C141.887 87.296 141.222 85.5448 141.222 83.4221C141.222 81.1933 141.943 79.389 143.439 78.0092Z" fill="white"/>
<path d="M160.624 76.4702H173.04L173.151 80.0258H172.652C172.375 78.9114 172.043 78.1684 171.655 77.85C171.266 77.5316 170.435 77.3193 169.16 77.3193H167.941V88.092C167.941 88.888 168.051 89.4187 168.329 89.631C168.606 89.8432 169.16 89.9494 170.047 90.0025V90.3739H163.617V90.0025C164.559 89.9494 165.114 89.7902 165.335 89.5779C165.557 89.3657 165.668 88.7819 165.668 87.8798V77.3193H164.448C163.229 77.3193 162.397 77.4785 161.954 77.85C161.51 78.1684 161.178 78.9114 160.956 80.0258H160.402L160.624 76.4702Z" fill="white"/>
<path d="M160.624 76.4702H173.04L173.151 80.0258H172.652C172.375 78.9114 172.043 78.1684 171.655 77.85C171.266 77.5316 170.435 77.3193 169.16 77.3193H167.941V88.092C167.941 88.888 168.051 89.4187 168.329 89.631C168.606 89.8432 169.16 89.9494 170.047 90.0025V90.3739H163.617V90.0025C164.559 89.9494 165.114 89.7902 165.335 89.5779C165.557 89.3657 165.668 88.7819 165.668 87.8798V77.3193H164.448C163.229 77.3193 162.397 77.4785 161.954 77.85C161.51 78.1684 161.178 78.9114 160.956 80.0258H160.402L160.624 76.4702Z" fill="white"/>
<path d="M179.803 90.0025C180.634 89.8963 181.133 89.7902 181.355 89.5779C181.577 89.3657 181.743 88.888 181.743 88.092V78.6991C181.743 77.9561 181.632 77.4785 181.41 77.2132C181.189 77.0009 180.634 76.8417 179.858 76.7887V76.4702H191.554L191.61 79.4951H191.055C190.889 78.5399 190.612 77.9561 190.224 77.6908C189.836 77.4255 189.004 77.2663 187.729 77.2663H184.736C184.404 77.2663 184.237 77.3193 184.126 77.4255C184.071 77.5316 184.016 77.6908 184.016 77.9561V82.6791H187.397C188.339 82.6791 188.949 82.5199 189.171 82.2546C189.448 81.9893 189.614 81.4586 189.78 80.6095H190.279V85.4917H189.78C189.614 84.6957 189.392 84.112 189.171 83.8997C188.894 83.6344 188.339 83.4752 187.397 83.4752H184.016V88.6758C184.016 89.1003 184.182 89.3656 184.404 89.4187C184.681 89.4718 185.512 89.5248 186.898 89.5248C188.395 89.5248 189.503 89.3657 190.169 89.0472C190.889 88.7288 191.499 87.9859 192.109 86.7653H192.718L191.721 90.3209H179.803V90.0025Z" fill="white"/>
<path d="M179.803 90.0025C180.634 89.8963 181.133 89.7902 181.355 89.5779C181.577 89.3657 181.743 88.888 181.743 88.092V78.6991C181.743 77.9561 181.632 77.4785 181.41 77.2132C181.189 77.0009 180.634 76.8417 179.858 76.7887V76.4702H191.554L191.61 79.4951H191.055C190.889 78.5399 190.612 77.9561 190.224 77.6908C189.836 77.4255 189.004 77.2663 187.729 77.2663H184.736C184.404 77.2663 184.237 77.3193 184.126 77.4255C184.071 77.5316 184.016 77.6908 184.016 77.9561V82.6791H187.397C188.339 82.6791 188.949 82.5199 189.171 82.2546C189.448 81.9893 189.614 81.4586 189.78 80.6095H190.279V85.4917H189.78C189.614 84.6957 189.392 84.112 189.171 83.8997C188.894 83.6344 188.339 83.4752 187.397 83.4752H184.016V88.6758C184.016 89.1003 184.182 89.3656 184.404 89.4187C184.681 89.4718 185.512 89.5248 186.898 89.5248C188.395 89.5248 189.503 89.3657 190.169 89.0472C190.889 88.7288 191.499 87.9859 192.109 86.7653H192.718L191.721 90.3209H179.803V90.0025Z" fill="white"/>
<path d="M199.204 90.0025C200.036 89.8963 200.534 89.7902 200.756 89.5779C200.978 89.3657 201.144 88.888 201.144 88.092V78.6991C201.144 77.9561 201.033 77.4785 200.812 77.2132C200.59 77.0009 200.036 76.8417 199.204 76.7887V76.4702H205.412V76.8417C204.581 76.8948 204.082 77.0009 203.805 77.2132C203.528 77.4255 203.417 77.9031 203.417 78.5929V88.7288C203.417 88.9411 203.472 89.1534 203.528 89.2595C203.639 89.3656 203.805 89.4718 204.082 89.5249C204.248 89.5249 204.415 89.5779 204.581 89.5779C204.747 89.5779 205.135 89.5779 205.634 89.5779C207.574 89.5779 208.905 89.4187 209.625 89.1003C210.29 88.7819 210.956 87.9859 211.621 86.7123H212.175L211.122 90.3739H199.26V90.0025H199.204Z" fill="white"/>
<path d="M199.204 90.0025C200.036 89.8963 200.534 89.7902 200.756 89.5779C200.978 89.3657 201.144 88.888 201.144 88.092V78.6991C201.144 77.9561 201.033 77.4785 200.812 77.2132C200.59 77.0009 200.036 76.8417 199.204 76.7887V76.4702H205.412V76.8417C204.581 76.8948 204.082 77.0009 203.805 77.2132C203.528 77.4255 203.417 77.9031 203.417 78.5929V88.7288C203.417 88.9411 203.472 89.1534 203.528 89.2595C203.639 89.3656 203.805 89.4718 204.082 89.5249C204.248 89.5249 204.415 89.5779 204.581 89.5779C204.747 89.5779 205.135 89.5779 205.634 89.5779C207.574 89.5779 208.905 89.4187 209.625 89.1003C210.29 88.7819 210.956 87.9859 211.621 86.7123H212.175L211.122 90.3739H199.26V90.0025H199.204Z" fill="white"/>
<path d="M216.887 86.1816C217.275 87.1368 217.718 87.8797 218.217 88.4635C219.104 89.4718 220.157 89.9494 221.488 89.9494C222.208 89.9494 222.818 89.7371 223.317 89.3126C223.816 88.888 224.093 88.3043 224.093 87.5083C224.093 86.8184 223.816 86.2346 223.317 85.704C222.984 85.3856 222.264 84.908 221.211 84.2712L219.326 83.1567C218.771 82.8383 218.328 82.4669 217.94 82.0954C217.33 81.4055 216.998 80.7156 216.998 79.9196C216.998 78.8583 217.386 77.9561 218.106 77.2662C218.827 76.5764 219.825 76.2049 221.044 76.2049C221.543 76.2049 222.153 76.311 222.873 76.5764C223.594 76.7886 223.982 76.9478 224.093 76.9478C224.37 76.9478 224.536 76.8948 224.647 76.7886C224.758 76.6825 224.814 76.4702 224.869 76.258H225.312L225.811 80.7687H225.312C224.98 79.442 224.37 78.4868 223.594 77.9561C222.818 77.4254 222.042 77.1601 221.266 77.1601C220.656 77.1601 220.157 77.3193 219.714 77.6908C219.27 78.0092 219.049 78.4868 219.049 79.1236C219.049 79.6543 219.215 80.1319 219.548 80.5034C219.88 80.8748 220.434 81.2994 221.155 81.7239L223.095 82.8914C224.315 83.5813 225.146 84.2711 225.645 84.8549C226.144 85.4386 226.366 86.1816 226.366 86.9776C226.366 88.092 225.922 88.9942 225.035 89.7371C224.148 90.48 223.04 90.8515 221.709 90.8515C221.044 90.8515 220.324 90.7454 219.548 90.48C218.827 90.2147 218.383 90.1086 218.273 90.1086C217.995 90.1086 217.829 90.1616 217.774 90.3208C217.663 90.4801 217.607 90.6392 217.607 90.7985H217.109L216.443 86.2877H216.887V86.1816Z" fill="white"/>
<path d="M216.887 86.1816C217.275 87.1368 217.718 87.8797 218.217 88.4635C219.104 89.4718 220.157 89.9494 221.488 89.9494C222.208 89.9494 222.818 89.7371 223.317 89.3126C223.816 88.888 224.093 88.3043 224.093 87.5083C224.093 86.8184 223.816 86.2346 223.317 85.704C222.984 85.3856 222.264 84.908 221.211 84.2712L219.326 83.1567C218.771 82.8383 218.328 82.4669 217.94 82.0954C217.33 81.4055 216.998 80.7156 216.998 79.9196C216.998 78.8583 217.386 77.9561 218.106 77.2662C218.827 76.5764 219.825 76.2049 221.044 76.2049C221.543 76.2049 222.153 76.311 222.873 76.5764C223.594 76.7886 223.982 76.9478 224.093 76.9478C224.37 76.9478 224.536 76.8948 224.647 76.7886C224.758 76.6825 224.814 76.4702 224.869 76.258H225.312L225.811 80.7687H225.312C224.98 79.442 224.37 78.4868 223.594 77.9561C222.818 77.4254 222.042 77.1601 221.266 77.1601C220.656 77.1601 220.157 77.3193 219.714 77.6908C219.27 78.0092 219.049 78.4868 219.049 79.1236C219.049 79.6543 219.215 80.1319 219.548 80.5034C219.88 80.8748 220.434 81.2994 221.155 81.7239L223.095 82.8914C224.315 83.5813 225.146 84.2711 225.645 84.8549C226.144 85.4386 226.366 86.1816 226.366 86.9776C226.366 88.092 225.922 88.9942 225.035 89.7371C224.148 90.48 223.04 90.8515 221.709 90.8515C221.044 90.8515 220.324 90.7454 219.548 90.48C218.827 90.2147 218.383 90.1086 218.273 90.1086C217.995 90.1086 217.829 90.1616 217.774 90.3208C217.663 90.4801 217.607 90.6392 217.607 90.7985H217.109L216.443 86.2877H216.887V86.1816Z" fill="white"/>
<path d="M271.155 44.2583C272.042 46.4341 273.04 48.1853 274.204 49.512C276.255 51.7939 278.749 52.9083 281.743 52.9083C283.35 52.9083 284.791 52.4307 285.955 51.4224C287.175 50.4141 287.729 49.0344 287.729 47.2831C287.729 45.6911 287.119 44.3114 285.955 43.1439C285.179 42.4009 283.516 41.2865 281.022 39.8006L276.643 37.2003C275.312 36.4043 274.259 35.6083 273.483 34.8123C272.042 33.2733 271.321 31.5752 271.321 29.7178C271.321 27.2767 272.153 25.2071 273.871 23.562C275.59 21.9169 277.862 21.1209 280.689 21.1209C281.853 21.1209 283.239 21.3862 284.847 21.9699C286.51 22.5006 287.452 22.766 287.674 22.766C288.283 22.766 288.727 22.6068 288.949 22.3414C289.17 22.0761 289.392 21.6516 289.503 21.1209H290.556L291.665 31.5221H290.445C289.614 28.3911 288.283 26.2153 286.454 24.9417C284.625 23.7212 282.796 23.0844 281.022 23.0844C279.636 23.0844 278.417 23.4558 277.363 24.2519C276.31 25.0479 275.811 26.1092 275.811 27.542C275.811 28.8157 276.199 29.877 277.031 30.7792C277.807 31.6813 279.082 32.6365 280.745 33.5917L285.235 36.2451C288.062 37.8902 290.002 39.4291 291.166 40.8089C292.275 42.1887 292.829 43.8868 292.884 45.7442C292.884 48.2914 291.887 50.4672 289.836 52.1654C287.84 53.8635 285.235 54.7657 282.131 54.7657C280.578 54.7657 278.916 54.5003 277.197 53.9166C275.479 53.3328 274.481 53.0675 274.259 53.0675C273.649 53.0675 273.261 53.2267 273.04 53.5982C272.818 53.9696 272.707 54.3411 272.652 54.7126H271.543L270.046 44.3114H271.155V44.2583Z" fill="white"/>
<path d="M111.233 53.1736C113.284 53.0144 114.67 52.7491 115.28 52.2715C115.89 51.7939 116.222 50.6264 116.222 48.769V27.0644C116.222 25.2601 115.89 24.0926 115.28 23.615C114.67 23.0843 113.34 22.7659 111.233 22.6598V21.7577H126.311V22.6598C124.26 22.7659 122.874 23.0843 122.264 23.615C121.655 24.1457 121.322 25.2601 121.322 27.0644V48.769C121.322 50.6794 121.655 51.8469 122.264 52.2715C122.874 52.696 124.204 53.0144 126.311 53.1736V54.0758H111.233V53.1736Z" fill="white"/>
<path d="M218.661 49.3528C220.767 51.7939 223.372 53.0144 226.421 53.0144C229.414 53.0144 232.02 51.847 234.126 49.4589C236.288 47.0709 237.341 43.25 237.341 37.9433C237.341 32.6365 236.288 28.7626 234.126 26.4276C231.964 24.0396 229.414 22.8721 226.477 22.8721C223.428 22.8721 220.822 24.0927 218.716 26.5868C216.61 29.0279 215.556 32.8488 215.556 37.9963C215.501 43.0908 216.554 46.8586 218.661 49.3528ZM214.836 25.4193C217.995 22.5537 221.82 21.1209 226.421 21.1209C231.022 21.1209 234.902 22.5537 238.006 25.4724C241.388 28.6034 243.106 32.7957 243.106 37.9963C243.106 43.3031 241.332 47.4954 237.84 50.6264C234.68 53.439 230.856 54.8187 226.421 54.8187C221.654 54.8187 217.663 53.2798 214.503 50.1488C211.288 46.9647 209.681 42.9316 209.681 37.9433C209.736 32.7427 211.399 28.5503 214.836 25.4193Z" fill="white"/>
<path d="M53.1411 53.1736C55.0812 53.0144 56.3007 52.6429 56.7996 52.0592C57.2985 51.5285 57.5202 50.2018 57.5202 48.1853V27.0113C57.5202 25.3132 57.2431 24.1988 56.6888 23.6681C56.1344 23.1374 54.9704 22.7659 53.1411 22.6598V21.7577H67.2762C70.2141 21.7577 72.6531 22.1291 74.6487 22.819C78.3626 24.1457 80.2473 26.6399 80.2473 30.3015C80.2473 32.7426 79.4158 34.6 77.7529 35.9267C76.0899 37.2534 73.8726 38.1024 71.0456 38.4739L81.5777 50.8387C82.2429 51.5816 82.8526 52.1653 83.5178 52.4837C84.183 52.8552 85.0144 53.0675 86.0122 53.1736V54.0758H77.8083L65.6687 39.0577L62.8417 39.1638V48.769C62.8417 50.5733 63.1189 51.7408 63.6732 52.2184C64.2275 52.696 65.5024 53.0144 67.4425 53.1736V54.0758H53.1411V53.1736ZM70.6022 36.2451C73.3183 35.1837 74.6487 33.1672 74.6487 30.2485C74.6487 27.4359 73.4292 25.4724 70.9902 24.4641C69.7152 23.9334 67.9969 23.615 65.835 23.615C64.3938 23.615 63.5069 23.7212 63.1743 23.9334C62.8417 24.1457 62.6754 24.5702 62.6754 25.3132V37.3595C66.3893 37.2534 68.9946 36.8819 70.6022 36.2451Z" fill="white"/>
<path d="M172.984 0L177.086 5.14755L174.813 17.6184L179.581 5.14755H185.623L172.984 23.4028L160.346 5.14755H166.443L171.21 17.6184L168.882 5.14755L172.984 0Z" fill="white"/>
<path d="M188.173 10.7727L172.985 32.1058L157.852 10.7727H150.424L168.384 37.4656L151.81 61.8767L0.148438 62.0889L30.0817 66.6527L155.967 67.0773L172.985 42.1886L190.058 67.0773L315.944 66.6527L345.822 62.0889L194.16 61.8767L177.641 37.4656L195.601 10.7727H188.173Z" fill="white"/>
</svg>
