<svg width="44" height="45" viewBox="0 0 44 45" fill="none" xmlns="http://www.w3.org/2000/svg">
<path d="M3 18.981C3 27.2455 9.72236 33.9619 17.9779 33.9619C21.7813 33.9619 25.2604 32.5316 27.9066 30.1872L37.4521 39.7346C37.629 39.9115 37.8575 40 38.0934 40C38.3292 40 38.5577 39.9115 38.7346 39.7346C39.0885 39.3807 39.0885 38.813 38.7346 38.4591L29.1818 28.9117C31.5258 26.265 32.9558 22.7925 32.9558 18.981C32.9558 10.7164 26.2334 4 17.9779 4C9.72236 4 3 10.7164 3 18.981ZM31.1499 18.981C31.1499 26.2429 25.2383 32.1556 17.9779 32.1556C10.7174 32.1556 4.8059 26.2429 4.8059 18.981C4.8059 11.719 10.7174 5.80627 17.9779 5.80627C25.2383 5.80627 31.1499 11.7117 31.1499 18.981Z" fill="white"/>
</svg>
