<svg width="16" height="18" viewBox="0 0 16 18" fill="none" xmlns="http://www.w3.org/2000/svg">
<path d="M4.73798 3.75182C4.58389 3.72912 4.42676 3.76051 4.29274 3.84077H4.28114C3.97022 4.02538 3.68997 4.25782 3.45119 4.53138C3.2522 4.76383 3.14441 4.99879 3.11622 5.22536C3.09964 5.35962 3.11125 5.49556 3.15022 5.62395L3.16514 5.63234C3.389 6.29779 3.68085 6.93806 4.03738 7.54056C4.49708 8.38683 5.06279 9.16951 5.72049 9.86919L5.74039 9.89772L5.77189 9.92122L5.79096 9.94388L5.81418 9.96402C6.50792 10.6317 7.28306 11.2069 8.12079 11.6759C9.07842 12.2037 9.65963 12.4529 10.0087 12.557V12.562C10.1107 12.5939 10.2035 12.6082 10.2972 12.6082C10.5945 12.5859 10.8759 12.4636 11.0965 12.2608C11.366 12.0191 11.594 11.7346 11.7714 11.4183V11.4124C11.9381 11.0935 11.8817 10.7931 11.6412 10.5892C11.1583 10.1621 10.636 9.78274 10.0817 9.45633C9.71021 9.25242 9.33296 9.37577 9.1804 9.5822L8.85456 9.99842C8.68708 10.2049 8.38362 10.1763 8.38362 10.1763L8.37533 10.1814C6.111 9.59647 5.50657 7.27623 5.50657 7.27623C5.50657 7.27623 5.47838 6.96071 5.68815 6.7996L6.09608 6.46729C6.29175 6.30618 6.42773 5.92521 6.21796 5.54927C5.89759 4.98768 5.52352 4.45928 5.10114 3.97167C5.00901 3.85692 4.87981 3.77876 4.73632 3.75098L4.73798 3.75182ZM8.56437 2.74316C8.45442 2.74316 8.34897 2.78737 8.27123 2.86605C8.19348 2.94474 8.14981 3.05146 8.14981 3.16274C8.14981 3.27401 8.19348 3.38073 8.27123 3.45942C8.34897 3.53811 8.45442 3.58231 8.56437 3.58231C9.61237 3.58231 10.4829 3.92888 11.1719 4.59348C11.526 4.95683 11.8021 5.38731 11.9828 5.85891C12.1644 6.33135 12.2473 6.83568 12.2258 7.34085C12.2211 7.45212 12.2604 7.5607 12.3349 7.64269C12.4093 7.72468 12.513 7.77337 12.6229 7.77804C12.7329 7.78271 12.8401 7.74299 12.9211 7.66761C13.0022 7.59223 13.0503 7.48737 13.0549 7.37609C13.0806 6.75469 12.9787 6.13465 12.7556 5.55514C12.5315 4.97289 12.1917 4.44337 11.7573 3.99937L11.749 3.99097C10.8942 3.16442 9.81302 2.74316 8.56437 2.74316Z" fill="white"/>
<path d="M8.53565 4.12242C8.42571 4.12242 8.32026 4.16663 8.24252 4.24531C8.16477 4.324 8.12109 4.43072 8.12109 4.54199C8.12109 4.65327 8.16477 4.75999 8.24252 4.83868C8.32026 4.91736 8.42571 4.96157 8.53565 4.96157H8.54975C9.30591 5.01611 9.85644 5.27121 10.242 5.68995C10.6375 6.12127 10.8423 6.65748 10.8265 7.32041C10.824 7.43168 10.8652 7.53942 10.9412 7.61992C11.0171 7.70041 11.1216 7.74707 11.2315 7.74963C11.3415 7.75219 11.4479 7.71044 11.5275 7.63356C11.607 7.55669 11.6531 7.45098 11.6556 7.33971C11.6755 6.46951 11.3986 5.71848 10.8497 5.11933V5.11765C10.2884 4.50843 9.51816 4.1862 8.5912 4.12326L8.57711 4.12158L8.53565 4.12242Z" fill="white"/>
<path d="M8.51984 5.52799C8.46437 5.52304 8.40847 5.52945 8.35549 5.54684C8.30251 5.56423 8.25354 5.59225 8.2115 5.62922C8.16946 5.6662 8.13521 5.71136 8.1108 5.76203C8.08638 5.81269 8.07231 5.86782 8.06941 5.92411C8.06651 5.9804 8.07485 6.03671 8.09393 6.08967C8.11301 6.14262 8.14243 6.19115 8.18045 6.23234C8.21847 6.27354 8.2643 6.30655 8.3152 6.32942C8.36611 6.3523 8.42104 6.36455 8.47673 6.36546C8.8233 6.38392 9.04468 6.48965 9.18397 6.63147C9.32409 6.77412 9.42856 7.00321 9.44763 7.36152C9.44866 7.41783 9.46089 7.47335 9.48357 7.52477C9.50626 7.5762 9.53894 7.62247 9.57967 7.66084C9.6204 7.69921 9.66834 7.72889 9.72064 7.74811C9.77295 7.76733 9.82854 7.77569 9.8841 7.77271C9.93967 7.76972 9.99407 7.75544 10.0441 7.73072C10.0941 7.70601 10.1386 7.67136 10.1751 7.62884C10.2116 7.58632 10.2393 7.5368 10.2564 7.48323C10.2736 7.42967 10.28 7.37315 10.2751 7.31705C10.2486 6.81356 10.0927 6.36882 9.77347 6.04155C9.4526 5.71428 9.01566 5.55484 8.51984 5.52799Z" fill="white"/>
<path fill-rule="evenodd" clip-rule="evenodd" d="M3.99371 0.547759C6.63202 -0.0491226 9.368 -0.0491226 12.0063 0.547759L12.2874 0.610695C13.0586 0.785195 13.767 1.17269 14.3337 1.73013C14.9004 2.28757 15.3034 2.99313 15.4977 3.7684C16.1674 6.43931 16.1674 9.23721 15.4977 11.9081C15.3034 12.6834 14.9004 13.3889 14.3337 13.9464C13.767 14.5038 13.0586 14.8913 12.2874 15.0658L12.0055 15.1288C10.3531 15.5028 8.65749 15.6437 6.96693 15.5475L4.76728 17.5396C4.68435 17.6148 4.58301 17.666 4.47384 17.688C4.36467 17.71 4.25167 17.7019 4.14664 17.6646C4.0416 17.6273 3.94838 17.5622 3.87671 17.476C3.80504 17.3898 3.75754 17.2857 3.73917 17.1746L3.37519 14.9744C2.67722 14.7546 2.04661 14.3573 1.54364 13.8204C1.04066 13.2836 0.682122 12.6252 0.502289 11.9081C-0.16743 9.23721 -0.16743 6.43931 0.502289 3.7684C0.696651 2.99313 1.09958 2.28757 1.66632 1.73013C2.23305 1.17269 2.94139 0.785195 3.71264 0.610695L3.99371 0.547759ZM11.7352 1.77543C9.27543 1.21891 6.7246 1.21891 4.26483 1.77543L3.98293 1.8392C3.43631 1.96311 2.93432 2.23793 2.5327 2.63315C2.13108 3.02836 1.84555 3.52851 1.70783 4.07805C1.08907 6.54574 1.08907 9.13077 1.70783 11.5985C1.84562 12.1481 2.13127 12.6483 2.53304 13.0436C2.93482 13.4388 3.43699 13.7135 3.98376 13.8373L4.05838 13.8541C4.17909 13.8814 4.28901 13.9446 4.37409 14.0354C4.45916 14.1263 4.51552 14.2408 4.53595 14.3643L4.77971 15.8395L6.33183 14.4339C6.39381 14.3776 6.46633 14.3345 6.54509 14.3071C6.62385 14.2798 6.70725 14.2687 6.79033 14.2745C8.44779 14.3935 10.1135 14.2677 11.7352 13.9011L12.0163 13.8373C12.563 13.7135 13.0652 13.4388 13.467 13.0436C13.8688 12.6483 14.1544 12.1481 14.2922 11.5985C14.9107 9.13138 14.9107 6.54597 14.2922 4.07805C14.1544 3.5284 13.8688 3.02818 13.467 2.63296C13.0652 2.23773 12.563 1.96297 12.0163 1.8392L11.7352 1.77543Z" fill="white"/>
</svg>
