<svg width="18" height="16" viewBox="0 0 18 16" fill="none" xmlns="http://www.w3.org/2000/svg">
<path d="M17.7497 0.175055C17.6501 0.0894285 17.5289 0.0324814 17.3992 0.0103486C17.2695 -0.0117841 17.1362 0.00173641 17.0136 0.0494536L0.728547 6.39431C0.497751 6.48366 0.302355 6.64523 0.171776 6.85471C0.0411976 7.06418 -0.0174964 7.31022 0.00453077 7.55577C0.0265579 7.80133 0.128114 8.03312 0.29391 8.21624C0.459705 8.39937 0.680767 8.52391 0.923814 8.57113L5.14334 9.39594V14.08C5.14251 14.3351 5.21866 14.5846 5.36194 14.7962C5.50522 15.0077 5.70901 15.1715 5.9469 15.2664C6.18443 15.363 6.44565 15.3861 6.69658 15.3329C6.94752 15.2797 7.17657 15.1525 7.35395 14.968L9.38857 12.8672L12.6165 15.68C12.8494 15.8857 13.1497 15.9995 13.461 16C13.5975 15.9999 13.733 15.9786 13.8628 15.9368C14.0749 15.8698 14.2657 15.7486 14.4161 15.5854C14.5666 15.4222 14.6714 15.2225 14.7202 15.0064L17.9819 0.879861C18.0111 0.752459 18.0049 0.619555 17.964 0.495394C17.9231 0.371233 17.849 0.260497 17.7497 0.175055ZM12.8367 3.05508L5.63753 8.18793L1.65184 7.40952L12.8367 3.05508ZM6.42904 14.08V10.2815L8.42108 12.0208L6.42904 14.08ZM13.4627 14.72L6.81877 8.91993L16.3812 2.09667L13.4627 14.72Z" fill="white"/>
</svg>
