<svg width="1296" height="700" viewBox="0 0 1296 700" fill="none" xmlns="http://www.w3.org/2000/svg">
<rect x="-5" y="-2" width="1307" height="539" fill="url(#paint0_linear_3689_5166)"/>
<path opacity="0.83" d="M-4.19629 408.851H635.97C632.445 359.916 591.666 321.279 541.832 321.279C529.322 321.279 517.434 323.767 506.513 328.191C484.741 285.822 440.644 256.792 389.774 256.792C333.097 256.792 284.922 292.803 266.537 343.12C258.796 340.978 250.709 339.733 242.346 339.733C231.84 339.733 221.818 341.6 212.418 344.917C197.419 288.863 146.48 247.531 85.6565 247.531C77.7771 247.531 70.1741 248.36 62.7094 249.673C51.5124 216.151 27.1831 188.712 -4.19629 173.368V408.782V408.851Z" fill="white"/>
<path d="M1301.64 283.874C1296.87 284.22 1291.97 284.565 1286.85 284.98C1197 291.892 1207.37 312.627 1131.34 329.907C1055.31 347.186 1086.41 364.465 1041.48 367.921C996.558 371.377 979.279 374.833 927.441 364.465C875.603 354.098 830.676 392.112 806.485 392.112C782.294 392.112 761.559 392.112 699.353 402.48C637.147 412.848 543.838 447.406 543.838 447.406L533.471 488.877L1301.64 491.918V283.874Z" fill="#27A6AF"/>
<path d="M1301.64 354.097C1284.84 356.585 1260.45 361.7 1231.55 372.551C1176.26 393.287 1199.28 407.11 1134.79 407.11C1070.3 407.11 1040.31 395.567 994.274 404.829C948.173 414.022 913.614 416.372 867.582 418.653C821.48 420.934 789.272 414.022 754.713 418.653C720.154 423.284 690.226 425.564 669.491 425.564C648.756 425.564 598.092 414.022 572.726 420.934C547.36 427.845 526.625 457.773 526.625 457.773H1301.71V354.097H1301.64Z" fill="#488AC9"/>
<path d="M1174.19 332.186C1174.19 332.186 1169.01 298.734 1185.32 278.689C1185.32 278.689 1163.75 294.31 1162.3 333.707C1162.3 333.707 1163.06 339.651 1174.19 332.186Z" fill="#27A6AF"/>
<path d="M1179.44 286.086C1179.44 286.086 1186.91 289.818 1187.6 293.136C1187.6 294.242 1190.92 289.404 1190.92 289.404L1189.47 295.002C1189.47 295.002 1196.17 300.6 1196.52 302.052C1197.28 302.812 1200.59 285.326 1186.84 282.008C1186.84 282.008 1193.89 278.69 1198.38 279.796L1199.49 274.198L1199.83 278.69C1199.83 278.69 1207.3 275.718 1211.38 277.93C1211.72 276.824 1204.67 270.88 1198.38 269.774C1192.09 268.668 1183.87 275.718 1183.87 275.718C1183.87 275.718 1187.18 269.014 1186.84 263.07C1186.49 257.125 1184.21 246.689 1184.21 246.689C1184.21 246.689 1179.37 254.153 1177.16 262.655C1174.95 271.225 1176.4 275.649 1176.4 275.649C1176.4 275.649 1173.08 271.917 1168.94 271.571C1164.86 271.225 1157.81 273.783 1155.53 276.409C1153.32 279.036 1152.56 285.325 1152.56 285.325L1161.47 280.833L1162.44 279.312L1164.03 276.755L1164.79 279.381L1172.95 280.142C1172.95 280.142 1164.03 284.22 1162.51 289.818C1161.06 295.417 1160.64 298.734 1160.64 298.734C1160.64 298.734 1168.8 290.924 1171.43 288.298C1174.05 285.671 1176.26 285.325 1176.26 285.325V287.537L1179.24 286.017L1179.44 286.086Z" fill="#27A6AF"/>
<path d="M1101.62 365.642C1101.62 365.642 1096.43 332.189 1112.74 312.145C1112.74 312.145 1091.18 327.765 1089.73 367.162C1089.73 367.162 1090.49 373.106 1101.62 365.711V365.642Z" fill="#27A6AF"/>
<path d="M1106.87 319.539C1106.87 319.539 1114.33 323.272 1115.03 326.589C1115.03 327.695 1118.34 322.857 1118.34 322.857L1116.89 328.456C1116.89 328.456 1123.6 334.054 1123.94 335.506C1124.7 336.266 1128.02 318.779 1114.26 315.462C1114.26 315.462 1121.31 312.144 1125.81 313.25L1126.91 307.651L1127.26 312.144C1127.26 312.144 1134.72 309.172 1138.8 311.384C1139.15 310.278 1132.1 304.334 1125.81 303.228C1119.52 302.122 1111.29 309.172 1111.29 309.172C1111.29 309.172 1114.61 302.467 1114.26 296.523C1113.92 290.579 1111.64 280.142 1111.64 280.142C1111.64 280.142 1106.8 287.607 1104.59 296.108C1102.38 304.679 1103.83 309.103 1103.83 309.103C1103.83 309.103 1100.51 305.37 1096.36 305.025C1092.29 304.679 1085.24 307.237 1082.95 309.863C1080.74 312.489 1079.98 318.779 1079.98 318.779L1088.9 314.286L1089.87 312.766L1091.46 310.209L1092.22 312.835L1100.37 313.595C1100.37 313.595 1091.46 317.673 1089.94 323.272C1088.48 328.87 1088.07 332.188 1088.07 332.188C1088.07 332.188 1096.22 324.378 1098.85 321.751C1101.48 319.125 1103.69 318.779 1103.69 318.779V320.991L1106.66 319.47L1106.87 319.539Z" fill="#27A6AF"/>
<path d="M1237.36 303.226C1237.36 303.226 1234.32 283.527 1243.93 271.777C1243.93 271.777 1231.28 280.97 1230.38 304.124C1230.38 304.124 1230.79 307.649 1237.36 303.226Z" fill="#27A6AF"/>
<path d="M1240.47 276.132C1240.47 276.132 1244.82 278.344 1245.31 280.279C1245.31 280.901 1247.24 278.067 1247.24 278.067L1246.34 281.316C1246.34 281.316 1250.28 284.564 1250.49 285.463C1250.91 285.878 1252.91 275.648 1244.82 273.644C1244.82 273.644 1248.97 271.709 1251.6 272.331L1252.22 269.082L1252.43 271.708C1252.43 271.708 1256.78 269.981 1259.2 271.294C1259.41 270.672 1255.26 267.147 1251.53 266.456C1247.8 265.834 1243.03 269.98 1243.03 269.98C1243.03 269.98 1244.96 266.041 1244.75 262.516C1244.55 258.991 1243.23 252.908 1243.23 252.908C1243.23 252.908 1240.4 257.263 1239.09 262.309C1237.77 267.354 1238.67 269.98 1238.67 269.98C1238.67 269.98 1236.74 267.769 1234.32 267.562C1231.9 267.354 1227.75 268.875 1226.44 270.395C1225.12 271.916 1224.71 275.648 1224.71 275.648L1229.96 273.022L1230.52 272.123L1231.48 270.603L1231.9 272.123L1236.74 272.538C1236.74 272.538 1231.48 274.957 1230.58 278.205C1229.69 281.454 1229.48 283.458 1229.48 283.458C1229.48 283.458 1234.32 278.897 1235.84 277.307C1237.36 275.717 1238.67 275.579 1238.67 275.579V276.892L1240.4 275.994L1240.47 276.132Z" fill="#27A6AF"/>
<path d="M955.152 380.431C955.152 380.431 958.193 360.733 948.586 348.983C948.586 348.983 961.234 358.175 962.133 381.33C962.133 381.33 961.718 384.855 955.152 380.431Z" fill="#27A6AF"/>
<path d="M952.043 353.338C952.043 353.338 947.688 355.549 947.205 357.485C947.205 358.107 945.269 355.273 945.269 355.273L946.168 358.521C946.168 358.521 942.228 361.77 942.021 362.668C941.606 363.083 939.602 352.854 947.689 350.849C947.689 350.849 943.542 348.914 940.915 349.536L940.293 346.287L940.086 348.914C940.086 348.914 935.731 347.186 933.312 348.499C933.105 347.877 937.252 344.352 940.984 343.661C944.716 343.039 949.486 347.186 949.486 347.186C949.486 347.186 947.55 343.246 947.758 339.721C947.965 336.196 949.278 330.114 949.278 330.114C949.278 330.114 952.112 334.469 953.425 339.514C954.739 344.56 953.84 347.186 953.84 347.186C953.84 347.186 955.775 344.974 958.195 344.767C960.614 344.56 964.761 346.08 966.074 347.601C967.387 349.121 967.802 352.854 967.802 352.854L962.549 350.227L961.996 349.329L961.028 347.808L960.613 349.329L955.775 349.743C955.775 349.743 961.028 352.163 961.927 355.411C962.825 358.66 963.033 360.664 963.033 360.664C963.033 360.664 958.195 356.102 956.674 354.512C955.153 352.923 953.84 352.785 953.84 352.785V354.098L952.112 353.199L952.043 353.338Z" fill="#27A6AF"/>
<path d="M782.635 409.115C782.635 409.115 786.505 384.094 774.271 369.096C774.271 369.096 790.376 380.776 791.482 410.221C791.482 410.221 790.929 414.644 782.566 409.115H782.635Z" fill="#27A6AF"/>
<path d="M778.697 374.694C778.697 374.694 773.167 377.459 772.614 379.947C772.614 380.777 770.126 377.183 770.126 377.183L771.232 381.33C771.232 381.33 766.256 385.477 765.979 386.583C765.426 387.136 762.938 374.072 773.167 371.584C773.167 371.584 767.914 369.096 764.528 369.925L763.698 365.778L763.422 369.096C763.422 369.096 757.892 366.884 754.782 368.543C754.505 367.714 759.758 363.29 764.528 362.461C769.228 361.631 775.379 366.884 775.379 366.884C775.379 366.884 772.891 361.908 773.167 357.415C773.444 352.992 775.103 345.181 775.103 345.181C775.103 345.181 778.697 350.711 780.356 357.139C782.014 363.497 780.908 366.884 780.908 366.884C780.908 366.884 783.397 364.119 786.438 363.843C789.479 363.567 794.801 365.502 796.46 367.437C798.119 369.372 798.672 374.072 798.672 374.072L792.036 370.755L791.276 369.58L790.032 367.644L789.479 369.58L783.397 370.133C783.397 370.133 790.032 373.174 791.207 377.39C792.313 381.537 792.589 384.025 792.589 384.025C792.589 384.025 786.507 378.219 784.503 376.215C782.498 374.211 780.908 374.003 780.908 374.003V375.662L778.697 374.556V374.694Z" fill="#27A6AF"/>
<path d="M1215.77 663.95C1241.84 666.2 1273.09 665.03 1302 662.78V430H-5V638.666C48.2481 638.396 131.163 643.075 118.508 676.008C100.044 723.967 53.9879 705.971 67.8186 759.96C81.6492 813.948 229.154 747.992 215.323 801.981C213.525 808.909 209.583 815.928 204.12 822.766C195.338 833.654 201.285 853 213.387 853H1241.7C1241.35 818.987 1096.89 811.699 1109.68 783.985C1123.51 754.021 1294.12 765.989 1243.36 736.025C1192.67 706.061 1146.54 658.012 1215.7 664.04L1215.77 663.95Z" fill="url(#paint1_linear_3689_5166)"/>
<path fill-rule="evenodd" clip-rule="evenodd" d="M304.837 671.04L304.812 671.079V671.038C304.82 671.039 304.829 671.04 304.837 671.04ZM390.488 655.371C432.964 634.353 452.854 600.42 452.854 600.42L355.748 595L304.837 671.04C336.062 673.534 362.053 667.862 383.084 658.796L408.928 710.483H418.056L390.488 655.371Z" fill="white" fill-opacity="0.3"/>
<path fill-rule="evenodd" clip-rule="evenodd" d="M1032.89 589L1087.18 670.061C1053.87 672.733 1026.15 666.681 1003.72 657.008L976.192 712.025H966.49L995.825 653.355C950.572 630.95 929.382 594.786 929.382 594.786L1032.89 589Z" fill="white" fill-opacity="0.3"/>
<path fill-rule="evenodd" clip-rule="evenodd" d="M912.535 625.291L954.732 688.351C928.833 690.413 907.276 685.702 889.834 678.179L868.413 721.021H860.874L883.712 675.346C848.493 657.918 832 629.791 832 629.791L912.535 625.291Z" fill="white" fill-opacity="0.3"/>
<defs>
<linearGradient id="paint0_linear_3689_5166" x1="781.116" y1="428.045" x2="912.244" y2="-56.8386" gradientUnits="userSpaceOnUse">
<stop offset="0.11" stop-color="white"/>
<stop offset="0.19" stop-color="#F0F5F7"/>
<stop offset="0.31" stop-color="#DFEFF7"/>
<stop offset="0.44" stop-color="#C2E6F8"/>
<stop offset="0.58" stop-color="#99D9FA"/>
<stop offset="0.74" stop-color="#65C9FB"/>
<stop offset="0.91" stop-color="#27B5FD"/>
<stop offset="1" stop-color="#00A9FF"/>
</linearGradient>
<linearGradient id="paint1_linear_3689_5166" x1="648.5" y1="187.052" x2="648.5" y2="1032.87" gradientUnits="userSpaceOnUse">
<stop stop-color="#F7F7F7"/>
<stop offset="0.1" stop-color="#F1F5F7"/>
<stop offset="0.22" stop-color="#E1F0F7"/>
<stop offset="0.37" stop-color="#C6E7F8"/>
<stop offset="0.52" stop-color="#A0DBF9"/>
<stop offset="0.69" stop-color="#70CCFB"/>
<stop offset="0.86" stop-color="#37BAFD"/>
<stop offset="1" stop-color="#00A9FF"/>
</linearGradient>
</defs>
</svg>
