<svg width="322" height="327" viewBox="0 0 322 327" fill="none" xmlns="http://www.w3.org/2000/svg">
<path d="M258.402 4.57177L269.779 6.92124L274.436 3.58254L278.064 8.65244L280.784 9.2295L285.359 5.932L288.945 10.9194L295.046 12.1972C295.046 12.1972 296.282 12.527 298.755 12.0324C302.548 9.39438 306.257 6.96247 309.555 4.94276C315.779 1.15064 320.849 -0.621771 321.755 0.614788C322.621 1.85135 319.323 6.05565 313.759 10.7546C310.791 13.2277 307.288 15.9481 303.578 18.7098C302.341 20.8944 302.218 22.1309 302.218 22.1309L301.476 28.3137L304.485 32.518L300.61 35.2797L300.116 39.3191L303.207 43.6058L299.25 46.4499L297.684 59.2689L294.675 60.794L293.273 49.0879C292.985 48.923 292.737 48.7169 292.531 48.4284L291.13 46.4499C290.388 45.4195 290.635 43.9356 291.666 43.1937L292.531 42.5754L290.8 27.7779C282.763 33.3424 276.085 37.7116 275.013 38.4947C274.313 38.9894 271.304 40.4732 268.171 41.9159L268.089 52.6327L266.481 53.7868L261.617 44.6363C260.628 44.966 260.01 45.0897 259.886 44.9661C259.763 44.8012 260.134 44.2653 260.752 43.441L253.621 35.898L255.229 34.7438L265.409 38.0826C267.759 35.5682 270.15 33.2187 270.85 32.6829C271.922 31.941 278.187 26.9947 286.06 21.1829L271.634 14.3406L271.221 14.6291C270.191 15.3711 268.707 15.1238 267.965 14.0933L266.564 12.1148C266.564 12.1148 266.44 11.9087 266.358 11.785L256.053 6.88004L258.485 4.53058L258.402 4.57177Z" fill="#323232"/>
<g clip-path="url(#clip0_3689_5208)">
<path d="M-259.796 439.346V236.014C-41.8316 264.538 255.19 37.4641 255.19 37.4641L264.011 49.3763C264.011 49.3763 -93.5198 233.5 -259.796 439.346Z" fill="white"/>
</g>
<defs>
<clipPath id="clip0_3689_5208">
<rect width="524" height="289" fill="white" transform="matrix(-1 0 0 1 264 38.0002)"/>
</clipPath>
</defs>
</svg>
