<svg width="161" height="238" viewBox="0 0 161 238" fill="none" xmlns="http://www.w3.org/2000/svg">
<path d="M166.575 29.2968C166.575 29.2968 123.017 59.243 106.683 81.0221C90.3485 102.801 79.459 121.858 79.459 121.858C79.459 121.858 57.6799 165.416 54.9575 191.279C52.2351 217.142 49.5127 237.559 49.5127 237.559C49.5127 237.559 50.8739 229.392 60.4022 223.947C69.9306 218.503 65.847 225.309 90.3485 208.974C114.85 192.64 114.85 181.75 114.85 181.75C114.85 181.75 113.489 135.47 120.295 117.774C124.378 121.858 123.017 169.5 123.017 169.5C123.017 169.5 124.378 144.998 146.157 134.109C167.937 123.219 178.826 109.607 181.549 105.524L184.271 101.44V60.6042L193.799 94.6341L253.692 59.243C253.692 59.243 221.023 15.6848 166.575 29.2968Z" fill="#404A69"/>
<path d="M162.5 0C162.5 0 48.1506 27.9352 8.89375 129.453C8.34927 130.542 7.80479 131.658 7.31476 132.747C5.95357 142.275 0.508789 149.081 0.508789 149.081L11.3983 139.553C11.3983 139.553 5.95357 164.055 5.95357 179.028C5.95357 194.001 10.0371 199.446 10.0371 199.446C10.0371 199.446 18.2043 150.443 23.6491 127.302C25.0103 132.747 19.5655 166.777 20.9267 174.944C23.6491 169.499 31.8163 130.025 37.261 113.69C39.9834 113.69 34.5386 154.526 42.7058 172.222C50.873 189.917 54.9566 200.807 54.9566 200.807C54.9566 200.807 44.067 128.664 48.1506 112.329C48.1506 112.329 59.0401 138.192 59.0401 134.108C59.0401 130.025 56.3177 112.329 59.0401 95.9949C63.1237 101.44 64.4849 142.275 72.6521 154.526C76.7356 149.081 76.7357 105.523 74.0133 81.0217C74.0133 81.0217 83.5416 104.162 88.9864 108.246C90.3476 108.246 87.6252 82.3829 83.5416 70.1322C91.7088 85.1053 108.043 117.774 120.294 127.302C118.933 120.496 103.96 85.1053 99.876 68.771L121.655 93.2725C121.655 93.2725 116.21 74.2158 109.404 60.6038C109.404 60.6038 127.1 67.4098 135.267 71.4934C143.434 75.577 176.103 27.9352 176.103 27.9352L162.5 0Z" fill="#404A69"/>
<path d="M242.801 34.7412C242.801 34.7412 168.398 85.6499 142.29 137.62C141.746 138.709 141.201 139.825 140.711 140.914C139.35 150.443 133.905 157.249 133.905 157.249L144.795 147.72C144.795 147.72 139.35 172.222 139.35 187.195C139.35 202.168 143.434 207.613 143.434 207.613C143.434 207.613 151.601 158.61 157.046 135.47C158.407 140.914 152.962 174.944 154.323 183.111C157.046 177.667 165.213 138.192 170.658 121.858C173.38 121.858 167.935 162.693 176.102 180.389C184.269 198.084 188.353 208.974 188.353 208.974C188.353 208.974 177.463 136.831 181.547 120.496C181.547 120.496 192.437 146.359 192.437 142.276C192.437 138.192 189.714 120.496 192.437 104.162C196.52 109.607 197.881 150.443 206.049 162.693C210.132 157.249 210.132 113.69 207.41 89.189C207.41 89.189 216.938 112.329 222.383 116.413C223.744 116.413 221.022 90.5502 216.938 78.2994C225.105 93.2726 241.44 125.941 253.69 135.47C252.329 128.664 237.356 93.2726 233.272 76.9382L255.052 101.44C255.052 101.44 249.607 82.383 242.801 68.7711C242.801 68.7711 260.496 75.577 268.663 79.6606C276.831 83.7442 309.499 36.1024 309.499 36.1024L242.801 34.7412Z" fill="#404A69"/>
</svg>
