<svg width="784" height="111" viewBox="0 0 784 111" fill="none" xmlns="http://www.w3.org/2000/svg">
<path fill-rule="evenodd" clip-rule="evenodd" d="M0.837366 82.0402L0.811523 82.0788V82.0382C0.820138 82.0389 0.828752 82.0396 0.837366 82.0402ZM86.4884 66.371C128.964 45.3532 148.854 11.4196 148.854 11.4196L51.7481 6L0.837366 82.0402C32.0623 84.534 58.0532 78.8617 79.0845 69.796L104.928 121.483H114.056L86.4884 66.371Z" fill="white" fill-opacity="0.3"/>
<path fill-rule="evenodd" clip-rule="evenodd" d="M728.886 0L783.18 81.0614C749.869 83.7327 722.145 77.6814 699.716 68.0075L672.192 123.025H662.49L691.825 64.355C646.572 41.9497 625.382 5.78587 625.382 5.78587L728.886 0Z" fill="white" fill-opacity="0.3"/>
<path fill-rule="evenodd" clip-rule="evenodd" d="M608.535 36.2908L650.732 99.3514C624.833 101.413 603.276 96.702 585.834 89.1792L564.413 132.021H556.874L579.712 86.346C544.493 68.9178 528 40.7909 528 40.7909L608.535 36.2908Z" fill="white" fill-opacity="0.3"/>
</svg>
