<svg width="309" height="238" viewBox="0 0 309 238" fill="none" xmlns="http://www.w3.org/2000/svg">
<path d="M166.067 29.2968C166.067 29.2968 122.508 59.243 106.174 81.0221C89.8397 102.801 78.9502 121.858 78.9502 121.858C78.9502 121.858 57.1711 165.416 54.4487 191.279C51.7263 217.142 49.0039 237.559 49.0039 237.559C49.0039 237.559 50.3651 229.392 59.8935 223.947C69.4218 218.503 65.3382 225.309 89.8397 208.974C114.341 192.64 114.341 181.75 114.341 181.75C114.341 181.75 112.98 135.47 119.786 117.774C123.87 121.858 122.508 169.5 122.508 169.5C122.508 169.5 123.87 144.998 145.649 134.109C167.428 123.219 178.317 109.607 181.04 105.524L183.762 101.44V60.6042L193.29 94.6341L253.183 59.243C253.183 59.243 220.514 15.6848 166.067 29.2968Z" fill="#404A69"/>
<path d="M161.991 0C161.991 0 47.6418 27.9352 8.38496 129.453C7.84048 130.542 7.296 131.658 6.80597 132.747C5.44478 142.275 0 149.081 0 149.081L10.8896 139.553C10.8896 139.553 5.44478 164.055 5.44478 179.028C5.44478 194.001 9.52836 199.446 9.52836 199.446C9.52836 199.446 17.6955 150.443 23.1403 127.302C24.5015 132.747 19.0567 166.777 20.4179 174.944C23.1403 169.499 31.3075 130.025 36.7522 113.69C39.4746 113.69 34.0299 154.526 42.197 172.222C50.3642 189.917 54.4478 200.807 54.4478 200.807C54.4478 200.807 43.5582 128.664 47.6418 112.329C47.6418 112.329 58.5313 138.192 58.5313 134.108C58.5313 130.025 55.809 112.329 58.5313 95.9949C62.6149 101.44 63.9761 142.275 72.1433 154.526C76.2269 149.081 76.2269 105.523 73.5045 81.0217C73.5045 81.0217 83.0328 104.162 88.4776 108.246C89.8388 108.246 87.1164 82.3829 83.0328 70.1322C91.2 85.1053 107.534 117.774 119.785 127.302C118.424 120.496 103.451 85.1053 99.3672 68.771L121.146 93.2725C121.146 93.2725 115.701 74.2158 108.896 60.6038C108.896 60.6038 126.591 67.4098 134.758 71.4934C142.925 75.577 175.594 27.9352 175.594 27.9352L161.991 0Z" fill="#404A69"/>
<path d="M242.292 34.7412C242.292 34.7412 167.889 85.6499 141.781 137.62C141.237 138.709 140.692 139.825 140.202 140.914C138.841 150.443 133.396 157.249 133.396 157.249L144.286 147.72C144.286 147.72 138.841 172.222 138.841 187.195C138.841 202.168 142.925 207.613 142.925 207.613C142.925 207.613 151.092 158.61 156.537 135.47C157.898 140.914 152.453 174.944 153.814 183.111C156.537 177.667 164.704 138.192 170.149 121.858C172.871 121.858 167.426 162.693 175.593 180.389C183.761 198.084 187.844 208.974 187.844 208.974C187.844 208.974 176.955 136.831 181.038 120.496C181.038 120.496 191.928 146.359 191.928 142.276C191.928 138.192 189.205 120.496 191.928 104.162C196.011 109.607 197.373 150.443 205.54 162.693C209.623 157.249 209.623 113.69 206.901 89.189C206.901 89.189 216.429 112.329 221.874 116.413C223.235 116.413 220.513 90.5502 216.429 78.2994C224.596 93.2726 240.931 125.941 253.182 135.47C251.82 128.664 236.847 93.2726 232.764 76.9382L254.543 101.44C254.543 101.44 249.098 82.383 242.292 68.7711C242.292 68.7711 259.988 75.577 268.155 79.6606C276.322 83.7442 308.991 36.1024 308.991 36.1024L242.292 34.7412Z" fill="#404A69"/>
</svg>
