<svg width="24" height="24" viewBox="0 0 24 24" fill="none" xmlns="http://www.w3.org/2000/svg">
<path d="M2 20.9286C2 21.2127 2.11288 21.4853 2.31381 21.6862C2.51475 21.8871 2.78727 22 3.07143 22H20.9286C21.2127 22 21.4853 21.8871 21.6862 21.6862C21.8871 21.4853 22 21.2127 22 20.9286V8.42857H2V20.9286ZM16.2857 10.0357C16.2857 9.98835 16.3045 9.94293 16.338 9.90945C16.3715 9.87596 16.4169 9.85714 16.4643 9.85714H18.25C18.2974 9.85714 18.3428 9.87596 18.3763 9.90945C18.4098 9.94293 18.4286 9.98835 18.4286 10.0357V11.8214C18.4286 11.8688 18.4098 11.9142 18.3763 11.9477C18.3428 11.9812 18.2974 12 18.25 12H16.4643C16.4169 12 16.3715 11.9812 16.338 11.9477C16.3045 11.9142 16.2857 11.8688 16.2857 11.8214V10.0357ZM16.2857 13.6071C16.2857 13.5598 16.3045 13.5144 16.338 13.4809C16.3715 13.4474 16.4169 13.4286 16.4643 13.4286H18.25C18.2974 13.4286 18.3428 13.4474 18.3763 13.4809C18.4098 13.5144 18.4286 13.5598 18.4286 13.6071V15.3929C18.4286 15.4402 18.4098 15.4856 18.3763 15.5191C18.3428 15.5526 18.2974 15.5714 18.25 15.5714H16.4643C16.4169 15.5714 16.3715 15.5526 16.338 15.5191C16.3045 15.4856 16.2857 15.4402 16.2857 15.3929V13.6071ZM12.7143 10.0357C12.7143 9.98835 12.7331 9.94293 12.7666 9.90945C12.8001 9.87596 12.8455 9.85714 12.8929 9.85714H14.6786C14.7259 9.85714 14.7714 9.87596 14.8048 9.90945C14.8383 9.94293 14.8571 9.98835 14.8571 10.0357V11.8214C14.8571 11.8688 14.8383 11.9142 14.8048 11.9477C14.7714 11.9812 14.7259 12 14.6786 12H12.8929C12.8455 12 12.8001 11.9812 12.7666 11.9477C12.7331 11.9142 12.7143 11.8688 12.7143 11.8214V10.0357ZM12.7143 13.6071C12.7143 13.5598 12.7331 13.5144 12.7666 13.4809C12.8001 13.4474 12.8455 13.4286 12.8929 13.4286H14.6786C14.7259 13.4286 14.7714 13.4474 14.8048 13.4809C14.8383 13.5144 14.8571 13.5598 14.8571 13.6071V15.3929C14.8571 15.4402 14.8383 15.4856 14.8048 15.5191C14.7714 15.5526 14.7259 15.5714 14.6786 15.5714H12.8929C12.8455 15.5714 12.8001 15.5526 12.7666 15.5191C12.7331 15.4856 12.7143 15.4402 12.7143 15.3929V13.6071ZM12.7143 17.1786C12.7143 17.1312 12.7331 17.0858 12.7666 17.0523C12.8001 17.0188 12.8455 17 12.8929 17H14.6786C14.7259 17 14.7714 17.0188 14.8048 17.0523C14.8383 17.0858 14.8571 17.1312 14.8571 17.1786V18.9643C14.8571 19.0116 14.8383 19.0571 14.8048 19.0906C14.7714 19.124 14.7259 19.1429 14.6786 19.1429H12.8929C12.8455 19.1429 12.8001 19.124 12.7666 19.0906C12.7331 19.0571 12.7143 19.0116 12.7143 18.9643V17.1786ZM9.14286 13.6071C9.14286 13.5598 9.16167 13.5144 9.19516 13.4809C9.22865 13.4474 9.27407 13.4286 9.32143 13.4286H11.1071C11.1545 13.4286 11.1999 13.4474 11.2334 13.4809C11.2669 13.5144 11.2857 13.5598 11.2857 13.6071V15.3929C11.2857 15.4402 11.2669 15.4856 11.2334 15.5191C11.1999 15.5526 11.1545 15.5714 11.1071 15.5714H9.32143C9.27407 15.5714 9.22865 15.5526 9.19516 15.5191C9.16167 15.4856 9.14286 15.4402 9.14286 15.3929V13.6071ZM9.14286 17.1786C9.14286 17.1312 9.16167 17.0858 9.19516 17.0523C9.22865 17.0188 9.27407 17 9.32143 17H11.1071C11.1545 17 11.1999 17.0188 11.2334 17.0523C11.2669 17.0858 11.2857 17.1312 11.2857 17.1786V18.9643C11.2857 19.0116 11.2669 19.0571 11.2334 19.0906C11.1999 19.124 11.1545 19.1429 11.1071 19.1429H9.32143C9.27407 19.1429 9.22865 19.124 9.19516 19.0906C9.16167 19.0571 9.14286 19.0116 9.14286 18.9643V17.1786ZM5.57143 13.6071C5.57143 13.5598 5.59024 13.5144 5.62373 13.4809C5.65722 13.4474 5.70264 13.4286 5.75 13.4286H7.53571C7.58307 13.4286 7.6285 13.4474 7.66198 13.4809C7.69547 13.5144 7.71429 13.5598 7.71429 13.6071V15.3929C7.71429 15.4402 7.69547 15.4856 7.66198 15.5191C7.6285 15.5526 7.58307 15.5714 7.53571 15.5714H5.75C5.70264 15.5714 5.65722 15.5526 5.62373 15.5191C5.59024 15.4856 5.57143 15.4402 5.57143 15.3929V13.6071ZM5.57143 17.1786C5.57143 17.1312 5.59024 17.0858 5.62373 17.0523C5.65722 17.0188 5.70264 17 5.75 17H7.53571C7.58307 17 7.6285 17.0188 7.66198 17.0523C7.69547 17.0858 7.71429 17.1312 7.71429 17.1786V18.9643C7.71429 19.0116 7.69547 19.0571 7.66198 19.0906C7.6285 19.124 7.58307 19.1429 7.53571 19.1429H5.75C5.70264 19.1429 5.65722 19.124 5.62373 19.0906C5.59024 19.0571 5.57143 19.0116 5.57143 18.9643V17.1786ZM20.9286 3.42857H18.4321V2H16.2893V3.42857H7.71071V2H5.56786V3.42857H3.07143C2.93126 3.42739 2.79225 3.45396 2.66239 3.50675C2.53254 3.55953 2.41442 3.63749 2.31482 3.73612C2.21523 3.83476 2.13614 3.95213 2.08211 4.08147C2.02808 4.21081 2.00017 4.34956 2 4.48973V7H22V4.48973C21.9998 4.34956 21.9719 4.21081 21.9179 4.08147C21.8639 3.95213 21.7848 3.83476 21.6852 3.73612C21.5856 3.63749 21.4675 3.55953 21.3376 3.50675C21.2078 3.45396 21.0687 3.42739 20.9286 3.42857Z" fill="#1C1C1C"/>
</svg>
