<svg width="24" height="24" fill="none" xmlns="http://www.w3.org/2000/svg"><path d="M5.811 5.279a.859.859 0 0 0-.475.369c-.071.137-.091.426-.043.612.023.086.83.919 2.839 2.93L10.939 12l-2.807 2.81c-2.009 2.011-2.816 2.844-2.839 2.93-.137.526.167.98.663.993a1.35 1.35 0 0 0 .304-.026c.086-.023.919-.83 2.93-2.839L12 13.061l2.81 2.807c2.011 2.009 2.844 2.816 2.93 2.839.525.136.98-.167.993-.662a1.354 1.354 0 0 0-.026-.305c-.023-.086-.83-.919-2.839-2.93L13.061 12l2.807-2.81c2.009-2.011 2.816-2.844 2.839-2.93.048-.186.028-.475-.043-.612-.084-.162-.282-.31-.493-.365-.153-.041-.229-.037-.471.025-.044.011-1.345 1.283-2.89 2.826L12 10.939 9.19 8.135C6.54 5.49 6.369 5.328 6.192 5.285c-.207-.05-.199-.05-.381-.006" fill-rule="evenodd" fill="#000"/></svg>