<svg width="32" height="24" viewBox="0 0 32 24" fill="none" xmlns="http://www.w3.org/2000/svg">
<path fill-rule="evenodd" clip-rule="evenodd" d="M10.8284 10.8284C10.0783 11.5786 9.06087 12 8 12C6.93913 12 5.92172 11.5786 5.17157 10.8284C4.42143 10.0783 4 9.06087 4 8C4 6.93913 4.42143 5.92172 5.17157 5.17157C5.92172 4.42143 6.93913 4 8 4C9.06087 4 10.0783 4.42143 10.8284 5.17157C11.5786 5.92172 12 6.93913 12 8C12 9.06087 11.5786 10.0783 10.8284 10.8284ZM8.35355 0.146447C8.25979 0.0526784 8.13261 0 8 0C7.86739 0 7.74021 0.0526784 7.64645 0.146447C7.55268 0.240215 7.5 0.367392 7.5 0.5V2.5C7.5 2.63261 7.55268 2.75979 7.64645 2.85355C7.74021 2.94732 7.86739 3 8 3C8.13261 3 8.25979 2.94732 8.35355 2.85355C8.44732 2.75979 8.5 2.63261 8.5 2.5V0.5C8.5 0.367392 8.44732 0.240215 8.35355 0.146447ZM8.35355 13.1464C8.25979 13.0527 8.13261 13 8 13C7.86739 13 7.74021 13.0527 7.64645 13.1464C7.55268 13.2402 7.5 13.3674 7.5 13.5V15.5C7.5 15.6326 7.55268 15.7598 7.64645 15.8536C7.74021 15.9473 7.86739 16 8 16C8.13261 16 8.25979 15.9473 8.35355 15.8536C8.44732 15.7598 8.5 15.6326 8.5 15.5V13.5C8.5 13.3674 8.44732 13.2402 8.35355 13.1464ZM15.8536 8.35355C15.9473 8.25979 16 8.13261 16 8C16 7.86739 15.9473 7.74021 15.8536 7.64645C15.7598 7.55268 15.6326 7.5 15.5 7.5H13.5C13.3674 7.5 13.2402 7.55268 13.1464 7.64645C13.0527 7.74021 13 7.86739 13 8C13 8.13261 13.0527 8.25979 13.1464 8.35355C13.2402 8.44732 13.3674 8.5 13.5 8.5H15.5C15.6326 8.5 15.7598 8.44732 15.8536 8.35355ZM2.85355 8.35355C2.94732 8.25979 3 8.13261 3 8C3 7.86739 2.94732 7.74021 2.85355 7.64645C2.75979 7.55268 2.63261 7.5 2.5 7.5H0.5C0.367392 7.5 0.240215 7.55268 0.146447 7.64645C0.0526784 7.74021 0 7.86739 0 8C0 8.13261 0.0526784 8.25979 0.146447 8.35355C0.240215 8.44732 0.367392 8.5 0.5 8.5H2.5C2.63261 8.5 2.75979 8.44732 2.85355 8.35355ZM13.8034 2.6965C13.8034 2.56392 13.7507 2.43676 13.657 2.343C13.5632 2.24926 13.4361 2.19661 13.3035 2.19661C13.1709 2.19661 13.0438 2.24926 12.95 2.343L11.536 3.757C11.4421 3.85075 11.3893 3.97796 11.3892 4.11065C11.3892 4.17634 11.4021 4.24141 11.4272 4.30212C11.4523 4.36284 11.4891 4.41801 11.5355 4.4645C11.6293 4.55839 11.7565 4.61118 11.8891 4.61128C11.9548 4.61132 12.0199 4.59843 12.0806 4.57333C12.1413 4.54823 12.1965 4.51142 12.243 4.465L13.657 3.05C13.7507 2.95624 13.8034 2.82908 13.8034 2.6965ZM4.61039 11.8895C4.61039 11.7569 4.55774 11.6298 4.464 11.536C4.37024 11.4423 4.24308 11.3896 4.1105 11.3896C3.97792 11.3896 3.85076 11.4423 3.757 11.536L2.343 12.95C2.25192 13.0443 2.20152 13.1706 2.20266 13.3017C2.2038 13.4328 2.25639 13.5582 2.34909 13.6509C2.44179 13.7436 2.5672 13.7962 2.6983 13.7973C2.8294 13.7985 2.9557 13.7481 3.05 13.657L4.464 12.243C4.55774 12.1492 4.61039 12.0221 4.61039 11.8895ZM13.3035 13.8034C13.4361 13.8034 13.5632 13.7507 13.657 13.657C13.7507 13.5632 13.8034 13.4361 13.8034 13.3035C13.8034 13.1709 13.7507 13.0438 13.657 12.95L12.243 11.536C12.1487 11.4449 12.0224 11.3945 11.8913 11.3957C11.7602 11.3968 11.6348 11.4494 11.5421 11.5421C11.4494 11.6348 11.3968 11.7602 11.3957 11.8913C11.3945 12.0224 11.4449 12.1487 11.536 12.243L12.95 13.657C13.0438 13.7507 13.1709 13.8034 13.3035 13.8034ZM4.1105 4.61139C4.24308 4.61139 4.37024 4.55874 4.464 4.465C4.51056 4.41855 4.54751 4.36338 4.57271 4.30263C4.59792 4.24189 4.61089 4.17677 4.61089 4.111C4.61089 4.04523 4.59792 3.98011 4.57271 3.91937C4.54751 3.85862 4.51056 3.80345 4.464 3.757L3.05 2.343C3.00388 2.29524 2.9487 2.25715 2.8877 2.23095C2.8267 2.20474 2.76109 2.19095 2.6947 2.19037C2.62831 2.1898 2.56247 2.20245 2.50102 2.22759C2.43957 2.25273 2.38375 2.28986 2.3368 2.3368C2.28986 2.38375 2.25273 2.43957 2.22759 2.50102C2.20245 2.56247 2.1898 2.62831 2.19037 2.6947C2.19095 2.76109 2.20474 2.8267 2.23095 2.8877C2.25715 2.9487 2.29524 3.00388 2.343 3.05L3.757 4.465C3.85076 4.55874 3.97792 4.61139 4.1105 4.61139ZM30.6667 16C30.6667 19.682 27.682 22.6667 24 22.6667C20.318 22.6667 17.3333 19.682 17.3333 16C17.3333 12.318 20.318 9.33337 24 9.33337C24.3087 9.33337 24.36 9.79537 24.0953 9.95537C23.5324 10.2952 23.0543 10.7587 22.697 11.3107C22.3398 11.8627 22.1128 12.4888 22.0334 13.1415C21.954 13.7942 22.0241 14.4564 22.2385 15.078C22.4529 15.6996 22.8059 16.2642 23.2709 16.7292C23.7358 17.1941 24.3004 17.5472 24.922 17.7616C25.5436 17.976 26.2058 18.0461 26.8586 17.9666C27.5113 17.8872 28.1373 17.6603 28.6893 17.303C29.2414 16.9458 29.7048 16.4676 30.0447 15.9047C30.204 15.64 30.6667 15.6914 30.6667 16Z" fill="#1C1C1C"/>
</svg>
