<svg width="24" height="24" viewBox="0 0 24 24" fill="none" xmlns="http://www.w3.org/2000/svg">
<path d="M12 17.0769C15.861 17.0769 19.2008 15.0277 20.9189 12C19.2008 8.97231 15.861 6.92308 12 6.92308C8.139 6.92308 4.79923 8.97231 3.08108 12C4.79923 15.0277 8.139 17.0769 12 17.0769ZM12 6C16.4015 6 20.2046 8.44615 22 12C20.2046 15.5538 16.4015 18 12 18C7.59845 18 3.79537 15.5538 2 12C3.79537 8.44615 7.59845 6 12 6ZM12 7.84615C14.4131 7.84615 16.3436 9.69231 16.3436 12C16.3436 14.3077 14.4131 16.1538 12 16.1538C9.58687 16.1538 7.65637 14.3077 7.65637 12C7.65637 9.69231 9.58687 7.84615 12 7.84615ZM12 8.76923C11.104 8.76923 10.2447 9.10961 9.61113 9.7155C8.97756 10.3214 8.62162 11.1431 8.62162 12C8.62162 12.8569 8.97756 13.6786 9.61113 14.2845C10.2447 14.8904 11.104 15.2308 12 15.2308C12.896 15.2308 13.7553 14.8904 14.3889 14.2845C15.0224 13.6786 15.3784 12.8569 15.3784 12C15.3784 11.1431 15.0224 10.3214 14.3889 9.7155C13.7553 9.10961 12.896 8.76923 12 8.76923Z" fill="#1C1C1C"/>
</svg>
