<svg width="24" height="24" viewBox="0 0 24 24" fill="none" xmlns="http://www.w3.org/2000/svg">
<path d="M21.9214 14.3708C21.9994 14.5228 22.0204 14.7033 21.9797 14.8726C21.9391 15.0419 21.8402 15.1862 21.7047 15.2737C21.5693 15.3612 21.4084 15.3847 21.2575 15.3392C21.1065 15.2936 20.9779 15.1826 20.8999 15.0306L18.9394 11.1727C17.78 12.0845 16.4856 12.7581 15.1163 13.1622L15.7211 17.2313C15.7339 17.3168 15.7315 17.4043 15.7142 17.4887C15.6968 17.5732 15.6647 17.653 15.6199 17.7236C15.575 17.7942 15.5181 17.8541 15.4526 17.9C15.387 17.946 15.3141 17.9769 15.2379 17.9912C15.2054 17.9968 15.1727 17.9998 15.1398 18C15.0009 17.9998 14.8666 17.9445 14.7605 17.8439C14.6545 17.7433 14.5836 17.6038 14.5605 17.4501L13.9606 13.4294C12.6615 13.6584 11.3385 13.6584 10.0394 13.4294L9.44344 17.4501C9.42026 17.6039 9.34925 17.7436 9.24301 17.8443C9.13677 17.9449 9.00218 18.0001 8.86311 18C8.83029 17.9998 8.79753 17.9968 8.76509 17.9912C8.68886 17.9768 8.6159 17.9457 8.55039 17.8997C8.48489 17.8536 8.42811 17.7935 8.38332 17.7228C8.33853 17.6522 8.30659 17.5723 8.28934 17.4877C8.27209 17.4032 8.26987 17.3157 8.28279 17.2302L8.88762 13.1611C7.51834 12.757 6.22389 12.0834 5.06454 11.1716L3.10007 15.0306C3.02207 15.1826 2.89346 15.2936 2.74253 15.3392C2.5916 15.3847 2.43071 15.3612 2.29526 15.2737C2.15981 15.1862 2.06089 15.0419 2.02026 14.8726C1.97963 14.7033 2.00062 14.5228 2.07862 14.3708L4.1225 10.3589C3.39537 9.67053 2.72868 8.90563 2.13155 8.07467C2.03354 7.93846 1.98777 7.76414 2.00432 7.59007C2.02086 7.416 2.09837 7.25643 2.21978 7.14647C2.34119 7.03651 2.49657 6.98516 2.65173 7.00372C2.80689 7.02229 2.94912 7.10924 3.04713 7.24545C4.70086 9.54395 7.59562 12.2812 12 12.2812C16.4044 12.2812 19.2991 9.54395 20.9529 7.24765C21.0509 7.11144 21.1931 7.02449 21.3483 7.00592C21.5034 6.98736 21.6588 7.03871 21.7802 7.14867C21.9016 7.25863 21.9791 7.4182 21.9957 7.59227C22.0122 7.76634 21.9665 7.94065 21.8684 8.07687C21.2713 8.90783 20.6046 9.67272 19.8775 10.3611L21.9214 14.3708Z" fill="#1C1C1C"/>
</svg>
