<svg width="24" height="24" fill="none" xmlns="http://www.w3.org/2000/svg"><path d="M15.285 2.539c-.898.203-1.749.958-2.066 1.832l-.09.249-5.295.02c-5.204.02-5.296.021-5.43.1-.481.283-.532.916-.102 1.244l.152.116 5.328.01 5.328.011.106.292a2.923 2.923 0 0 0 2.903 1.893c.445-.029.702-.092 1.067-.263a2.864 2.864 0 0 0 1.516-1.632l.112-.288 1.366-.012 1.366-.011.152-.115c.169-.13.3-.379.301-.576a.88.88 0 0 0-.211-.522c-.208-.223-.224-.225-1.662-.247l-1.335-.02-.087-.24c-.146-.404-.344-.705-.681-1.04-.371-.367-.707-.577-1.163-.727-.399-.131-1.164-.166-1.575-.074m1.252 1.554c.906.415 1.137 1.586.449 2.279-.582.587-1.451.598-2.023.025-.759-.758-.461-1.996.57-2.365.282-.101.705-.075 1.004.061M6.064 9.146c-.56.12-1.105.444-1.536.915a3.344 3.344 0 0 0-.605 1.025l-.047.146-.668.015c-.711.016-.81.04-.996.24A.886.886 0 0 0 2 12c0 .155.097.391.212.513.186.2.285.224.996.24l.668.015.047.146c.218.682.818 1.371 1.477 1.697a2.954 2.954 0 0 0 2.806-.092 3.096 3.096 0 0 0 1.238-1.457l.11-.282 5.953-.02c5.441-.018 5.963-.026 6.073-.086.242-.134.42-.419.42-.674 0-.255-.178-.54-.42-.674-.11-.06-.632-.068-6.074-.086l-5.955-.02-.087-.241c-.259-.714-.926-1.403-1.636-1.69a3.21 3.21 0 0 0-1.764-.143m1.189 1.535c.266.099.613.422.742.689.184.38.185.878.002 1.257-.107.221-.413.539-.62.644a1.438 1.438 0 0 1-1.947-.665c-.116-.236-.13-.301-.129-.605.001-.282.019-.38.105-.566.337-.724 1.098-1.034 1.847-.754m5.557 5.041c-.116.02-.323.075-.46.121-.804.268-1.548 1.02-1.809 1.826l-.067.21-4.01.01-4.01.011-.152.116c-.43.328-.379.961.102 1.244.133.078.227.08 4.109.1l3.973.02.075.212c.143.406.361.738.717 1.092.575.573 1.217.835 2.042.835.515 0 .868-.082 1.32-.305.657-.324 1.258-1.017 1.478-1.704l.048-.15 2.607-.001c2.449-.001 2.617-.005 2.767-.075a.734.734 0 0 0 .398-.413.725.725 0 0 0-.241-.856l-.151-.115-2.69-.011-2.69-.011-.085-.254c-.283-.852-1.091-1.603-1.981-1.842-.293-.078-1.004-.112-1.29-.06m1.002 1.543c.631.22 1.042.945.907 1.6a1.438 1.438 0 0 1-.81 1.04c-.212.098-.299.115-.589.115-.285 0-.377-.017-.567-.106-.932-.437-1.148-1.595-.431-2.312a1.409 1.409 0 0 1 1.49-.337" fill-rule="evenodd" fill="#000"/></svg>