<svg width="24" height="24" viewBox="0 0 24 24" fill="none" xmlns="http://www.w3.org/2000/svg">
<path fill-rule="evenodd" clip-rule="evenodd" d="M16.7855 3C19.9678 3 23 5.72428 23 9.39367C23 13.2981 20.1286 16.4654 17.7443 18.4691L17.7414 18.4715C16.3363 19.6432 14.8228 20.6817 13.2209 21.5733L13.2199 21.5738C13.071 21.6564 12.9209 21.7367 12.7695 21.8147L12.7643 21.8173C12.5272 21.9376 12.2653 22 12 22C11.8314 22 11.6641 21.9748 11.5037 21.9255H11.4411L11.2236 21.812C11.0769 21.7354 10.9284 21.656 10.7804 21.574L10.7792 21.5733C10.5068 21.4217 10.1198 21.2006 9.65684 20.9146L9.65738 20.915L10.1818 20.0635L9.6563 20.9143L9.65684 20.9146C8.46639 20.1813 7.33074 19.3646 6.25867 18.4706L6.25611 18.4685C3.87231 16.4672 1 13.299 1 9.39457C1 5.72428 4.03311 3 7.21455 3C9.16525 3 10.8128 3.81877 11.9998 5.11887C13.1867 3.81861 14.835 3 16.7855 3Z" fill="#1C1C1C"/>
</svg>
