<svg width="26" height="23" fill="none" xmlns="http://www.w3.org/2000/svg"><path d="M6.413.755c-1.505.271-2.815.944-3.866 1.987-2.038 2.02-2.684 4.78-1.829 7.81 1.022 3.622 4.237 7.253 9.27 10.471 1.219.778 2.238 1.34 2.591 1.427.115.028.359.042.548.031.423-.024.715-.157 1.919-.871 4.361-2.588 7.591-5.625 9.274-8.718 1.541-2.836 1.75-5.828.57-8.178-1.086-2.162-3.121-3.643-5.471-3.98-.528-.076-1.773-.029-2.315.087-1.471.316-2.698.984-3.746 2.04l-.358.36-.401-.396C11.535 1.774 10.351 1.132 8.905.822 8.349.703 6.919.664 6.413.755m1.662 1.954c1.213.101 2.54.801 3.39 1.79.319.37.659.873 1.17 1.73.189.316.353.574.365.574.012 0 .236-.356.498-.79.76-1.262 1.191-1.783 1.909-2.313 1.046-.773 2.275-1.116 3.596-1.005 1.121.094 2.219.628 3.098 1.507 1.038 1.037 1.56 2.308 1.558 3.793-.002 1.453-.429 2.857-1.335 4.388-1.579 2.67-4.725 5.475-8.708 7.764l-.62.356-.767-.441c-2.339-1.346-4.673-3.124-6.292-4.792-1.242-1.28-2.062-2.405-2.709-3.722-.608-1.235-.888-2.354-.888-3.542.001-1.502.517-2.762 1.559-3.804.867-.868 1.979-1.413 3.078-1.51.402-.036.488-.035 1.098.017" fill-rule="evenodd" fill="#000"/></svg>