<svg width="24" height="24" viewBox="0 0 24 24" fill="none" xmlns="http://www.w3.org/2000/svg">
<path d="M3.0008 7.49377C3.0008 8.24729 3.27713 9.07551 3.62817 9.95434C3.9792 10.8332 4.43145 11.6614 4.78329 12.2888C5.73759 13.946 6.96742 15.5776 8.37317 16.9328C9.77892 18.288 11.4361 19.4183 13.2933 20.0963C14.3729 20.5228 15.4525 21 16.6574 21C17.2599 21 18.1138 20.7743 18.8914 20.4473C19.6449 20.1212 20.322 19.6191 20.5735 19.0166C20.6739 18.7909 20.7992 18.4896 20.8747 18.1378C20.9502 17.8116 21 17.4847 21 17.2589C21 17.1336 21 17.0075 20.9751 16.9826C20.8996 16.8316 20.7237 16.7063 20.5229 16.5809C20.0706 16.3552 19.9959 16.2797 19.3179 15.878C18.615 15.4764 17.8873 15.0241 17.2591 14.698C16.9579 14.522 16.7571 14.4465 16.6815 14.4465C16.2799 14.4465 15.7778 14.9992 15.3513 15.6017C14.8991 16.2042 14.397 16.7569 14.046 16.7569C13.87 16.7569 13.6941 16.6813 13.4933 16.556C13.2925 16.4307 13.0917 16.3303 12.9664 16.2548C10.7573 14.9992 9.27606 13.5187 8.02133 11.3344C7.87031 11.083 7.51928 10.556 7.51928 10.2797C7.51928 9.95354 7.97153 9.57678 8.42297 9.17512C8.84952 8.79837 9.30177 8.3469 9.30177 7.79422C9.30177 7.7187 9.25116 7.49297 9.15075 7.16682C8.92503 6.51372 8.6238 5.76101 8.37237 5.0332C8.24705 4.68135 8.14664 4.43071 8.12094 4.3054C8.07033 4.22988 8.04543 4.12947 8.02053 4.00415C7.99563 3.87883 7.94502 3.77842 7.92012 3.678C7.84461 3.45227 7.7193 3.27634 7.59398 3.17593C7.46867 3.12532 7.16744 3.05061 6.86621 3.0249C6.56498 3.0249 6.21314 3 6.06292 3C5.98742 3 5.887 3 5.78659 3.0249H5.46046C4.65718 3.37676 4.07961 4.07966 3.65307 4.90789C3.25143 5.73611 3 6.66555 3 7.49377H3.0008Z" fill="#1C1C1C"/>
</svg>
