<svg width="24" height="24" viewBox="0 0 24 24" fill="none" xmlns="http://www.w3.org/2000/svg">
<g clip-path="url(#clip0_4197_3070)">
<path fill-rule="evenodd" clip-rule="evenodd" d="M15.8335 15.7729C17.173 14.4181 18 12.5556 18 10.5C18 6.35786 14.6421 3 10.5 3C6.35786 3 3 6.35786 3 10.5C3 14.6421 6.35786 18 10.5 18C12.0443 18 13.4796 17.5333 14.6725 16.7331L19.4697 21.5303C19.7626 21.8232 20.2374 21.8232 20.5303 21.5303C20.8232 21.2374 20.8232 20.7626 20.5303 20.4697L15.8335 15.7729ZM10.5 16.8C7.02061 16.8 4.2 13.9794 4.2 10.5C4.2 7.02061 7.02061 4.2 10.5 4.2C13.9794 4.2 16.8 7.02061 16.8 10.5C16.8 13.9794 13.9794 16.8 10.5 16.8Z" fill="#1C1C1C"/>
</g>
<defs>
<clipPath id="clip0_4197_3070">
<rect width="24" height="24" fill="white"/>
</clipPath>
</defs>
</svg>
