<svg width="24" height="24" viewBox="0 0 24 24" fill="none" xmlns="http://www.w3.org/2000/svg">
<path d="M20.7497 4.17505C20.6501 4.08943 20.5289 4.03248 20.3992 4.01035C20.2695 3.98822 20.1362 4.00174 20.0136 4.04945L3.72855 10.3943C3.49775 10.4837 3.30236 10.6452 3.17178 10.8547C3.0412 11.0642 2.9825 11.3102 3.00453 11.5558C3.02656 11.8013 3.12811 12.0331 3.29391 12.2162C3.45971 12.3994 3.68077 12.5239 3.92381 12.5711L8.14334 13.3959V18.08C8.14251 18.3351 8.21866 18.5846 8.36194 18.7962C8.50522 19.0077 8.70901 19.1715 8.9469 19.2664C9.18443 19.363 9.44565 19.3861 9.69658 19.3329C9.94752 19.2797 10.1766 19.1525 10.3539 18.968L12.3886 16.8672L15.6165 19.68C15.8494 19.8857 16.1497 19.9995 16.461 20C16.5975 19.9999 16.733 19.9786 16.8628 19.9368C17.0749 19.8698 17.2657 19.7486 17.4161 19.5854C17.5666 19.4222 17.6714 19.2225 17.7202 19.0064L20.9819 4.87986C21.0111 4.75246 21.0049 4.61955 20.964 4.49539C20.9231 4.37123 20.849 4.2605 20.7497 4.17505ZM15.8367 7.05508L8.63753 12.1879L4.65184 11.4095L15.8367 7.05508ZM9.42904 18.08V14.2815L11.4211 16.0208L9.42904 18.08ZM16.4627 18.72L9.81877 12.9199L19.3812 6.09667L16.4627 18.72Z" fill="#1C1C1C"/>
</svg>
