<svg width="24" height="24" viewBox="0 0 24 24" fill="none" xmlns="http://www.w3.org/2000/svg">
<path d="M12.421 2C8.21052 2 4 2.52632 4 6.21052V16.2105C4 18.2421 5.65263 19.8947 7.68421 19.8947L6.47368 21.1053C6.40094 21.1795 6.3518 21.2735 6.33244 21.3756C6.31308 21.4777 6.32437 21.5833 6.3649 21.6789C6.40542 21.7746 6.47336 21.8562 6.56016 21.9133C6.64696 21.9704 6.74872 22.0006 6.85263 22H8C8.13684 22 8.27368 21.9474 8.36842 21.8421L10.3158 19.8947H14.5263L16.4737 21.8421C16.5684 21.9368 16.7053 22 16.8421 22H17.9895C18.4632 22 18.6947 21.4316 18.3579 21.1053L17.1579 19.8947C19.1895 19.8947 20.8421 18.2421 20.8421 16.2105V6.21052C20.8421 2.52632 16.6316 2 12.421 2ZM7.68421 17.7895C6.81052 17.7895 6.10526 17.0842 6.10526 16.2105C6.10526 15.3368 6.81052 14.6316 7.68421 14.6316C8.55789 14.6316 9.26315 15.3368 9.26315 16.2105C9.26315 17.0842 8.55789 17.7895 7.68421 17.7895ZM11.3684 10.421H6.10526V6.21052H11.3684V10.421ZM17.1579 17.7895C16.2842 17.7895 15.5789 17.0842 15.5789 16.2105C15.5789 15.3368 16.2842 14.6316 17.1579 14.6316C18.0316 14.6316 18.7368 15.3368 18.7368 16.2105C18.7368 17.0842 18.0316 17.7895 17.1579 17.7895ZM18.7368 10.421H13.4737V6.21052H18.7368V10.421Z" fill="#1C1C1C"/>
</svg>
