<svg width="24" height="24" viewBox="0 0 24 24" fill="none" xmlns="http://www.w3.org/2000/svg">
<path d="M8.73798 6.75167C8.58389 6.72896 8.42676 6.76036 8.29274 6.84061H8.28114C7.97022 7.02523 7.68997 7.25767 7.45119 7.53123C7.2522 7.76368 7.14441 7.99864 7.11622 8.22521C7.09964 8.35947 7.11125 8.49541 7.15022 8.6238L7.16514 8.63219C7.389 9.29763 7.68085 9.9379 8.03738 10.5404C8.49708 11.3867 9.06279 12.1694 9.72049 12.869L9.74039 12.8976L9.77189 12.9211L9.79096 12.9437L9.81418 12.9639C10.5079 13.6315 11.2831 14.2068 12.1208 14.6757C13.0784 15.2035 13.6596 15.4528 14.0087 15.5568V15.5619C14.1107 15.5937 14.2035 15.608 14.2972 15.608C14.5945 15.5858 14.8759 15.4635 15.0965 15.2606C15.366 15.0189 15.594 14.7345 15.7714 14.4181V14.4122C15.9381 14.0934 15.8817 13.7929 15.6412 13.589C15.1583 13.1619 14.636 12.7826 14.0817 12.4562C13.7102 12.2523 13.333 12.3756 13.1804 12.5821L12.8546 12.9983C12.6871 13.2047 12.3836 13.1762 12.3836 13.1762L12.3753 13.1812C10.111 12.5963 9.50657 10.2761 9.50657 10.2761C9.50657 10.2761 9.47838 9.96056 9.68815 9.79944L10.0961 9.46714C10.2918 9.30603 10.4277 8.92505 10.218 8.54912C9.89759 7.98753 9.52352 7.45913 9.10114 6.97152C9.00901 6.85676 8.87981 6.77861 8.73632 6.75083L8.73798 6.75167ZM12.5644 5.74301C12.4544 5.74301 12.349 5.78722 12.2712 5.8659C12.1935 5.94459 12.1498 6.05131 12.1498 6.16258C12.1498 6.27386 12.1935 6.38058 12.2712 6.45927C12.349 6.53795 12.4544 6.58216 12.5644 6.58216C13.6124 6.58216 14.4829 6.92872 15.1719 7.59333C15.526 7.95668 15.8021 8.38716 15.9828 8.85876C16.1644 9.3312 16.2473 9.83553 16.2258 10.3407C16.2211 10.452 16.2604 10.5605 16.3349 10.6425C16.4093 10.7245 16.513 10.7732 16.6229 10.7779C16.7329 10.7826 16.8401 10.7428 16.9211 10.6675C17.0022 10.5921 17.0503 10.4872 17.0549 10.3759C17.0806 9.75454 16.9787 9.13449 16.7556 8.55499C16.5315 7.97274 16.1917 7.44322 15.7573 6.99921L15.749 6.99082C14.8942 6.16426 13.813 5.74301 12.5644 5.74301Z" fill="currentColor"/>
<path d="M12.5357 7.12232C12.4257 7.12232 12.3203 7.16653 12.2425 7.24521C12.1648 7.3239 12.1211 7.43062 12.1211 7.54189C12.1211 7.65317 12.1648 7.75989 12.2425 7.83858C12.3203 7.91726 12.4257 7.96147 12.5357 7.96147H12.5497C13.3059 8.01601 13.8564 8.27111 14.242 8.68985C14.6375 9.12117 14.8423 9.65738 14.8265 10.3203C14.824 10.4316 14.8652 10.5393 14.9412 10.6198C15.0171 10.7003 15.1216 10.747 15.2315 10.7495C15.3415 10.7521 15.4479 10.7103 15.5275 10.6335C15.607 10.5566 15.6531 10.4509 15.6556 10.3396C15.6755 9.46941 15.3986 8.71838 14.8497 8.11923V8.11755C14.2884 7.50833 13.5182 7.1861 12.5912 7.12316L12.5771 7.12148L12.5357 7.12232Z" fill="currentColor"/>
<path d="M12.5198 8.52784C12.4644 8.52288 12.4085 8.52929 12.3555 8.54669C12.3025 8.56408 12.2535 8.5921 12.2115 8.62907C12.1695 8.66604 12.1352 8.71121 12.1108 8.76187C12.0864 8.81254 12.0723 8.86766 12.0694 8.92396C12.0665 8.98025 12.0749 9.03655 12.0939 9.08951C12.113 9.14247 12.1424 9.191 12.1805 9.23219C12.2185 9.27338 12.2643 9.3064 12.3152 9.32927C12.3661 9.35214 12.421 9.3644 12.4767 9.36531C12.8233 9.38377 13.0447 9.4895 13.184 9.63132C13.3241 9.77397 13.4286 10.0031 13.4476 10.3614C13.4487 10.4177 13.4609 10.4732 13.4836 10.5246C13.5063 10.576 13.5389 10.6223 13.5797 10.6607C13.6204 10.6991 13.6683 10.7287 13.7206 10.748C13.7729 10.7672 13.8285 10.7755 13.8841 10.7726C13.9397 10.7696 13.9941 10.7553 14.0441 10.7306C14.0941 10.7059 14.1386 10.6712 14.1751 10.6287C14.2116 10.5862 14.2393 10.5366 14.2564 10.4831C14.2736 10.4295 14.28 10.373 14.2751 10.3169C14.2486 9.81341 14.0927 9.36866 13.7735 9.0414C13.4526 8.71413 13.0157 8.55469 12.5198 8.52784Z" fill="currentColor"/>
<path fill-rule="evenodd" clip-rule="evenodd" d="M7.99371 3.54766C10.632 2.95078 13.368 2.95078 16.0063 3.54766L16.2874 3.6106C17.0586 3.7851 17.767 4.1726 18.3337 4.73004C18.9004 5.28748 19.3034 5.99303 19.4977 6.7683C20.1674 9.43921 20.1674 12.2371 19.4977 14.908C19.3034 15.6833 18.9004 16.3888 18.3337 16.9463C17.767 17.5037 17.0586 17.8912 16.2874 18.0657L16.0055 18.1287C14.3531 18.5027 12.6575 18.6436 10.9669 18.5474L8.76728 20.5395C8.68435 20.6147 8.58301 20.6659 8.47384 20.6879C8.36467 20.7099 8.25167 20.7018 8.14664 20.6645C8.0416 20.6272 7.94838 20.5621 7.87671 20.4759C7.80504 20.3897 7.75754 20.2856 7.73917 20.1745L7.37519 17.9743C6.67722 17.7545 6.04661 17.3572 5.54364 16.8203C5.04066 16.2835 4.68212 15.6251 4.50229 14.908C3.83257 12.2371 3.83257 9.43921 4.50229 6.7683C4.69665 5.99303 5.09958 5.28748 5.66632 4.73004C6.23305 4.1726 6.94139 3.7851 7.71264 3.6106L7.99371 3.54766ZM15.7352 4.77533C13.2754 4.21882 10.7246 4.21882 8.26483 4.77533L7.98293 4.83911C7.43631 4.96301 6.93432 5.23783 6.5327 5.63305C6.13108 6.02827 5.84555 6.52841 5.70783 7.07795C5.08907 9.54565 5.08907 12.1307 5.70783 14.5984C5.84562 15.148 6.13127 15.6482 6.53304 16.0435C6.93482 16.4387 7.43699 16.7134 7.98376 16.8372L8.05838 16.854C8.17909 16.8813 8.28901 16.9445 8.37409 17.0353C8.45916 17.1262 8.51552 17.2407 8.53595 17.3642L8.77971 18.8394L10.3318 17.4338C10.3938 17.3776 10.4663 17.3344 10.5451 17.307C10.6239 17.2797 10.7072 17.2686 10.7903 17.2744C12.4478 17.3934 14.1135 17.2676 15.7352 16.901L16.0163 16.8372C16.563 16.7134 17.0652 16.4387 17.467 16.0435C17.8688 15.6482 18.1544 15.148 18.2922 14.5984C18.9107 12.1313 18.9107 9.54588 18.2922 7.07795C18.1544 6.52831 17.8688 6.02809 17.467 5.63286C17.0652 5.23763 16.563 4.96287 16.0163 4.83911L15.7352 4.77533Z" fill="currentColor"/>
</svg>
